SplineFontDB: 1.0
FontName: MnSymbolS-Bold12
FullName: MnSymbolS-Bold12
FamilyName: MnSymbolS-Bold12
Weight: Regular
Copyright: Generated from MetaFont bitmap by mftrace 1.1.17, http://www.xs4all.nl/~hanwen/mftrace/ 
Version: 001.001
ItalicAngle: 0
UnderlinePosition: -100
UnderlineWidth: 50
Ascent: 800
Descent: 200
NeedsXUIDChange: 1
UniqueID: 4156615
OS2TypoAscent: 0
OS2TypoAOffset: 1
OS2TypoDescent: 0
OS2TypoDOffset: 1
OS2TypoLinegap: 0
OS2WinAscent: 0
OS2WinAOffset: 1
OS2WinDescent: 0
OS2WinDOffset: 1
HheadAscent: 0
HheadAOffset: 1
HheadDescent: 0
HheadDOffset: 1
OS2Vendor: 'PfEd'
Encoding: Custom
UnicodeInterp: none
NameList: Adobe Glyph List
DisplaySize: -24
AntiAlias: 1
FitToEm: 1
WinInfo: 54 18 9
BeginPrivate: 3
lenIV 1 4
BlueValues 2 []
ForceBold 5 false
EndPrivate
BeginChars: 256 28
StartChar: A
Encoding: 65 65 2
Width: 878
Flags: HMW
Back
122.754 101.103 m 0
 129.685 95.5029 137.75 90.9727 146.65 87.7324 c 0
 154.174 84.9941 162.294 83.1738 170.826 82.3516 c 0
 218.242 77.7832 290.563 174.332 349.762 253.567 c 0
 448.478 385.696 534.254 522.507 606.096 660.929 c 1
 659.949 660.929 l 1
 658.14 656.461 656.156 652.036 654.013 647.726 c 0
 568.267 475.332 466.63 311.148 351.248 156.714 c 0
 296.82 83.8643 197.512 -53.2471 128.192 -46.5684 c 0
 118.302 -45.6152 108.877 -43.5098 100.051 -40.2969 c 0
 89.6074 -36.4961 80 -31.1514 71.4521 -24.2451 c 0
 48.375 -5.59863 38.1133 17.5186 35.4951 36.9805 c 0
 32.4219 59.832 43.9727 100.537 61.2773 127.841 c 0
 78.582 155.145 95.1191 158.758 98.1934 135.907 c 0
 99.8262 123.771 113.854 108.294 122.754 101.103 c 0
763.622 235.841 m 0
 769.761 180.822 781.296 127.718 798.068 77.1875 c 0
 798.858 74.8057 799.855 72.5938 801.029 70.5615 c 0
 810.895 53.4727 828.634 53.9854 830.695 54.1797 c 0
 832.447 54.3447 827.17 53.9023 816.765 48.6523 c 1
 857.704 69.3076 l 2
 890.811 86.0107 918.443 88.2461 919.384 74.2979 c 0
 920.323 60.3496 894.218 35.4727 861.111 18.7695 c 2
 820.173 -1.88477 l 2
 789.567 -17.3262 765.901 -22.6992 749.722 -24.2227 c 0
 728.868 -26.1865 697.479 -22.0537 683.264 2.56934 c 0
 681.552 5.5332 680.118 8.72363 678.983 12.1406 c 0
 661.835 63.8047 650.034 118.111 643.749 174.441 c 0
 625.603 337.09 617.327 502.894 618.966 671.095 c 0
 619.107 685.581 646.102 710.518 679.221 726.756 c 0
 712.341 742.995 739.105 744.417 738.965 729.931 c 0
 737.335 562.633 745.565 397.68 763.622 235.841 c 0
365.72 165.641 m 2
 343.733 165.641 346.063 183.337 370.921 205.141 c 0
 395.778 226.945 433.796 244.641 455.781 244.641 c 2
 748.717 244.642 l 2
 770.703 244.642 768.373 226.945 743.516 205.142 c 0
 718.659 183.337 680.642 165.641 658.655 165.641 c 2
 365.72 165.641 l 2
EndSplineSet
Fore
637 245 m 1
 626 355 620 467 619 580 c 1
 555 457 482 340 402 227 c 1
 422 238 442 245 456 245 c 2
 637 245 l 1
133 -47 m 0
 84 -47 35 -4 35 46 c 0
 35 89 70 151 88 151 c 0
 93 151 97 147 98 136 c 0
 101 113 138 82 174 82 c 0
 222 82 292 176 350 254 c 0
 448 386 534 523 606 661 c 1
 619 661 l 1
 619 661 612 694 679 727 c 0
 697 735 713 740 724 740 c 0
 733 740 739 737 739 730 c 2
 739 689 l 2
 739 422 764 246 764 234 c 0
 772 160 793 84 801 71 c 0
 809 57 822 55 828 54 c 1
 858 69 l 2
 876 79 893 83 904 83 c 0
 911 83 919 81 919 74 c 0
 919 59 894 35 861 19 c 2
 820 -2 l 2
 792 -16 763 -25 738 -25 c 0
 710 -25 687 -13 679 12 c 0
 663 61 651 112 645 166 c 1
 359 166 l 1
 351 157 l 2
 298 86 202 -47 133 -47 c 0
EndSplineSet
EndChar
StartChar: B
Encoding: 66 66 3
Width: 715
Flags: HMW
Back
115.922 188.911 m 0
 150.602 327.635 176.435 466.272 193.249 603.961 c 1
 156.908 585.625 l 2
 123.802 568.922 96.1689 566.687 95.2285 580.635 c 0
 94.2881 594.583 120.395 619.46 153.501 636.163 c 2
 254.987 687.365 l 2
 272.601 696.252 287.301 700.898 299.613 701.472 c 0
 311.926 702.044 317.524 698.342 316.61 690.231 c 0
 299.84 541.445 272.583 391.392 235.008 241.088 c 0
 218.301 174.261 191.083 107.495 153.627 42.5996 c 0
 142.66 23.5977 108.396 -0.431641 77.1445 -11.0381 c 0
 45.8936 -21.6455 29.4307 -14.832 40.3975 4.16895 c 0
 74.3477 62.9893 100.086 125.57 115.922 188.911 c 0
407.324 62.8076 m 0
 414.447 62.8076 453.375 62.9365 491.251 76.2852 c 0
 501.286 79.8213 507.689 83.0137 511.83 85.4043 c 0
 521.259 90.8477 530.026 99.0352 538.392 110.342 c 0
 553.295 130.483 558.45 150.464 559.941 156.43 c 0
 569.293 193.836 566.295 230.434 548.015 262.098 c 0
 509.896 328.123 417.858 353.167 330.67 338.442 c 0
 305.624 334.213 298.824 344.165 313.618 363.402 c 0
 328.411 382.64 357.662 401.884 386.977 411.663 c 0
 480.183 442.759 523.114 459.519 553.821 477.247 c 0
 571.248 487.308 578.879 495.532 584.708 506.018 c 0
 587.219 510.533 589.489 515.907 591.007 521.979 c 0
 596.463 543.805 593.683 564.189 584.177 580.654 c 0
 562.613 618.005 515.681 626.84 483.163 623.034 c 0
 478.204 622.454 468.162 621.133 456.793 617.986 c 0
 446.405 615.112 438.749 611.797 432.596 608.244 c 0
 421.131 601.625 416.809 597.225 414.218 595.059 c 0
 350.247 541.574 280.102 421.463 235.008 241.088 c 0
 230.929 224.773 200.943 199.845 168.075 185.444 c 0
 135.208 171.043 111.843 172.597 115.922 188.911 c 0
 166.256 390.25 245.137 520.266 339.828 599.435 c 0
 359.707 616.055 383.246 632.979 409.549 648.165 c 0
 443.076 667.521 478.719 682.337 510.021 690.999 c 0
 528.021 695.979 545.016 699.229 561.502 701.159 c 0
 649.009 711.398 688.986 671.088 701.942 648.646 c 0
 713.521 628.59 717.479 603.699 710.093 574.155 c 0
 707.752 564.791 703.992 555.316 698.554 545.535 c 0
 671.283 496.487 611.547 457.349 576.868 437.326 c 0
 563.309 429.498 549.034 422.034 534.47 414.968 c 1
 596.332 402.076 642.265 370.821 665.78 330.09 c 0
 679.75 305.893 693.322 265.784 679.027 208.606 c 0
 671.396 178.077 656.565 154.458 645.442 139.424 c 0
 620.93 106.295 583.068 73.3066 534.878 45.4834 c 0
 507.454 29.6504 479.896 17.4219 454.569 8.49609 c 0
 393.354 -13.0771 344.595 -16.0381 317.438 -16.0381 c 0
 237.109 -16.0381 190.955 16.3496 171.786 32.3535 c 0
 161.463 40.9717 178.626 64.1836 210.096 84.165 c 0
 241.565 104.147 275.484 113.37 285.808 104.752 c 0
 326.188 71.041 373.457 62.8066 407.324 62.8076 c 0
EndSplineSet
Fore
714 602 m 0
 714 527 632 463 534 415 c 1
 638 393 685 326 685 254 c 0
 685 92 465 -16 317 -16 c 0
 228 -16 168 29 168 40 c 0
 168 63 240 108 274 108 c 0
 292 108 320 63 407 63 c 0
 546 63 565 144 565 197 c 0
 565 287 480 343 379 343 c 0
 344 343 332 337 320 337 c 0
 311 337 306 341 306 347 c 0
 306 351 308 357 314 363 c 0
 375 443 594 435 594 542 c 0
 594 599 542 624 497 624 c 0
 468 624 438 615 414 595 c 0
 350 542 281 421 235 241 c 0
 218 174 191 107 154 43 c 0
 135 11 78 -16 51 -16 c 0
 42 -16 37 -13 37 -7 c 0
 37 6 85 66 116 189 c 0
 151 328 176 466 193 604 c 1
 157 586 l 2
 138 576 122 571 110 571 c 0
 103 571 95 573 95 581 c 0
 95 595 121 620 154 636 c 2
 255 687 l 2
 270 695 290 702 303 702 c 0
 311 702 317 699 317 692 c 0
 317 688 306 605 300 562 c 1
 363 628 476 702 588 702 c 0
 665 702 714 662 714 602 c 0
EndSplineSet
EndChar
StartChar: C
Encoding: 67 67 4
Width: 583
Flags: HMW
Back
449.185 541.225 m 0
 457.873 563.408 458.887 588.506 449.947 603.99 c 0
 447.672 607.93 442.278 615.878 431.043 619.34 c 0
 427.294 620.494 419.309 622.674 408.952 622.674 c 0
 400.959 622.674 357.649 623.165 315.832 607.521 c 0
 312.173 606.152 303.147 602.723 293.06 596.897 c 0
 280.852 589.85 280.042 588.688 272.97 583.021 c 0
 232.975 550.973 178.424 481.475 150.262 368.829 c 0
 129.4 285.381 135.364 202.895 169.071 144.511 c 0
 201.506 88.3301 250.396 68.6416 287.084 62.4072 c 0
 315.445 57.5879 342.301 60.9492 359.905 65.668 c 0
 373.822 69.3994 382.097 73.334 389.179 77.4229 c 0
 396.016 81.3701 402.972 86.4883 409.901 92.541 c 0
 418.426 99.9883 428.624 110.445 438.572 123.415 c 0
 454.226 143.825 490.618 166.517 519.806 174.067 c 0
 548.992 181.618 559.976 171.183 544.322 150.773 c 0
 529.071 130.889 510.988 111.397 488.986 92.1768 c 0
 470.228 75.79 444.724 56.2656 412.227 37.5029 c 0
 375.528 16.3154 337.712 0.967773 304.982 -7.80566 c 0
 248.799 -22.8682 208.9 -19.3916 186.814 -15.6387 c 0
 145.133 -8.55566 88.1045 12.7803 51.3057 76.5186 c 0
 14.8594 139.647 8.60059 226.35 31.1758 316.652 c 0
 65.9531 455.759 139.378 540.042 203.488 591.413 c 0
 223.242 607.242 245.85 622.867 270.012 636.818 c 0
 292.165 649.607 318.137 662.507 347.246 673.396 c 0
 414.519 698.562 469.158 701.52 498.837 701.52 c 0
 513.158 701.52 525.46 699.567 536.455 696.181 c 0
 551.816 691.448 561.482 682.773 567.712 671.982 c 0
 582.109 647.046 576.271 612.92 566.595 588.215 c 0
 554.799 558.097 540.205 528.178 522.767 498.682 c 0
 511.467 479.568 477.029 455.612 445.896 445.209 c 0
 414.764 434.806 398.668 441.875 409.968 460.988 c 0
 425.208 486.768 438.402 513.693 449.185 541.225 c 0
EndSplineSet
Fore
406 450 m 0
 406 462 456 527 456 580 c 0
 456 611 436 623 409 623 c 0
 327 623 288 595 273 583 c 0
 197 522 139 390 139 273 c 0
 139 113 241 60 316 60 c 0
 351 60 386 71 410 93 c 0
 419 100 476 177 536 177 c 0
 546 177 551 173 551 167 c 0
 551 162 549 157 544 151 c 0
 472 57 339 -19 223 -19 c 0
 107 -19 19 62 19 216 c 0
 19 379 121 588 347 673 c 0
 415 699 469 702 499 702 c 0
 566 702 576 663 576 638 c 0
 576 611 564 569 523 499 c 0
 504 467 448 441 421 441 c 0
 412 441 406 444 406 450 c 0
EndSplineSet
EndChar
StartChar: D
Encoding: 68 68 5
Width: 850
Flags: HMW
Back
253.319 316.652 m 0
 278.499 417.369 293.526 517.99 298.116 616.913 c 0
 298.801 631.664 326.23 656.621 359.344 672.619 c 0
 392.456 688.618 418.774 689.631 418.091 674.881 c 0
 413.422 574.257 398.137 471.753 372.406 368.829 c 0
 346.675 265.904 310.632 163.082 264.676 61.7686 c 0
 256.517 43.7803 223.843 19.2422 191.744 6.99609 c 0
 159.645 -5.25 140.216 -0.588867 148.375 17.3994 c 0
 192.934 115.632 228.141 215.937 253.319 316.652 c 0
313.078 79.0059 m 2
 424.637 79.0068 518.755 109.768 575.121 142.311 c 0
 684.073 205.214 708.627 304.885 713.083 322.712 c 0
 730.479 392.291 724.139 448.251 699.149 491.534 c 0
 653.969 569.793 547.492 606.475 410.918 606.475 c 2
 313.16 606.475 l 2
 291.218 606.475 293.544 624.136 318.353 645.896 c 0
 343.161 667.658 381.104 685.319 403.047 685.319 c 2
 500.804 685.319 l 2
 651.595 685.319 767.476 645.162 816.915 559.526 c 0
 839.95 519.627 853.655 460.831 832.17 374.889 c 0
 794.914 225.867 656.867 136.28 598.168 102.391 c 0
 467.712 27.0713 330.694 0.161133 223.191 0.161133 c 2
 101.337 0.162109 l 2
 79.3945 0.162109 81.7207 17.8232 106.529 39.585 c 0
 131.338 61.3457 169.28 79.0068 191.223 79.0068 c 2
 313.078 79.0059 l 2
166.732 581.22 m 0
 163.081 579.111 156.704 572.557 151.021 563.333 c 0
 146.992 556.795 142.029 547.057 138.548 533.133 c 0
 134.47 516.817 104.483 491.89 71.6162 477.488 c 0
 38.748 463.088 15.3828 464.641 19.4619 480.956 c 0
 23.3867 496.654 29.6201 511.707 39.0332 526.983 c 0
 59.7598 560.62 95.9814 593.599 143.685 621.141 c 0
 176.174 639.898 206.483 651.769 229.896 659.395 c 0
 269.197 672.194 327.344 685.319 403.047 685.319 c 0
 424.988 685.319 422.662 667.658 397.854 645.896 c 0
 373.046 624.136 335.103 606.475 313.16 606.475 c 0
 260.189 606.475 215.957 598.93 187.035 589.51 c 0
 174.993 585.588 168.334 582.145 166.732 581.22 c 0
EndSplineSet
Fore
843 456 m 0
 843 183 499 0 223 0 c 2
 101 0 l 2
 91 0 86 4 86 10 c 0
 86 26 127 64 174 76 c 1
 254 271 289 450 298 606 c 1
 244 604 189 594 167 581 c 0
 158 576 145 559 139 533 c 0
 133 509 70 468 34 468 c 0
 25 468 19 471 19 477 c 0
 19 556 178 685 403 685 c 2
 501 685 l 2
 668 685 843 632 843 456 c 0
313 79 m 2
 452 79 665 129 713 323 c 0
 720 350 723 374 723 397 c 0
 723 551 575 606 413 606 c 1
 395 411 340 231 272 79 c 1
 313 79 l 2
EndSplineSet
EndChar
StartChar: E
Encoding: 69 69 6
Width: 579
Flags: HMW
Back
478.726 553.872 m 2
 491.128 575.461 481.214 593.871 479.277 597.225 c 0
 476.564 601.923 469.862 611.361 455.823 615.01 c 0
 435.956 620.172 415.204 622.675 394.667 622.675 c 0
 368.606 622.675 347.018 618.275 333.019 614.137 c 0
 320.488 610.432 313.436 606.864 310.391 605.107 c 0
 301.905 600.208 293.581 590.854 287.103 580.932 c 0
 277.102 565.612 273.274 551.478 271.816 545.646 c 0
 265.577 520.688 268.64 498.807 279.155 480.592 c 0
 306.098 433.926 376.655 416.439 437.466 416.439 c 0
 459.408 416.439 457.082 398.778 432.273 377.017 c 0
 407.465 355.256 369.521 337.594 347.579 337.594 c 0
 267.521 337.595 190.67 361.883 161.39 412.6 c 0
 148.849 434.322 144.625 461.05 152.729 493.469 c 0
 157.223 511.441 164.852 528.918 176.415 546.631 c 0
 207.854 594.786 258.854 628.579 287.344 645.027 c 0
 320.658 664.262 353.464 677.493 382.393 686.046 c 0
 405.363 692.837 442.19 701.52 484.554 701.52 c 0
 511.505 701.52 536.492 698.316 559.679 692.291 c 0
 577.988 687.534 589.808 677.75 597.043 665.216 c 0
 612.155 639.041 601.852 609.541 591.664 591.808 c 2
 586.532 583.229 l 2
 575.058 564.057 540.53 540.142 509.462 529.846 c 0
 478.393 519.55 462.49 526.753 473.965 545.925 c 2
 478.726 553.872 l 2
244.64 312.772 m 0
 233.951 306.602 225.834 299.885 222.048 296.638 c 0
 197.741 275.797 169.3 239.118 157.252 190.924 c 0
 150.941 165.682 154.142 143.092 164.968 124.339 c 0
 188.692 83.2461 246.359 62.8066 305.865 62.8066 c 0
 328.935 62.8066 347.502 66.9229 359.7 70.6436 c 0
 369.89 73.7529 379.295 77.6865 388.046 82.7383 c 0
 394.606 86.5264 400.977 91.0469 406.975 95.9189 c 0
 415.741 103.038 426.309 113.064 436.919 125.743 c 0
 454.358 146.583 491.364 168.581 519.521 174.848 c 0
 547.677 181.113 556.374 169.285 538.935 148.445 c 0
 521.989 128.197 502.005 108.266 478.043 88.8057 c 0
 454.938 70.043 432.153 54.9775 411.093 42.8184 c 0
 377.826 23.6113 343.263 8.77344 312.318 -0.666992 c 0
 290.714 -7.25781 255.479 -16.0381 215.979 -16.0381 c 0
 138.641 -16.0381 73.5703 10.6748 47.2021 56.3467 c 0
 34.3613 78.5889 29.9531 105.896 38.165 138.747 c 0
 51.3262 191.391 84.4062 246.81 144.91 298.688 c 0
 163.904 314.974 189.233 334.011 221.592 352.692 c 0
 243.14 365.134 265.383 375.939 286.82 384.646 c 0
 352.216 411.202 403.545 416.439 437.466 416.439 c 0
 459.408 416.439 457.082 398.778 432.273 377.017 c 0
 407.465 355.256 369.522 337.594 347.58 337.594 c 0
 303.174 337.594 272.559 325.607 263.546 321.947 c 0
 259.896 320.465 252.545 317.337 244.64 312.772 c 0
EndSplineSet
Fore
470 535 m 0
 470 544 485 557 485 579 c 0
 485 614 445 623 395 623 c 0
 330 623 287 606 272 546 c 0
 270 536 268 528 268 520 c 0
 268 442 369 416 437 416 c 0
 448 416 453 413 453 407 c 0
 453 385 387 338 348 338 c 0
 193 338 154 205 154 166 c 0
 154 103 219 63 306 63 c 0
 371 63 407 90 437 126 c 0
 457 150 505 177 533 177 c 0
 543 177 548 173 548 167 c 0
 548 162 545 156 539 148 c 0
 475 72 344 -16 216 -16 c 0
 124 -16 34 24 34 107 c 0
 34 157 76 274 231 358 c 1
 184 377 148 409 148 461 c 0
 148 580 327 702 485 702 c 0
 551 702 605 688 605 636 c 0
 605 568 519 525 485 525 c 0
 476 525 470 529 470 535 c 0
EndSplineSet
EndChar
StartChar: F
Encoding: 70 70 7
Width: 783
Flags: HMW
Back
136.925 102.493 m 0
 158.759 64.6738 198.725 49.085 234.515 49.8457 c 0
 240.472 49.9717 233.05 50.0078 220.911 42.999 c 1
 220.973 43.0342 214.315 38.8408 213.394 38.0225 c 1
 218.778 42.8018 225.921 52.3242 231.384 61.8047 c 0
 277.935 142.587 317.795 226.04 350.253 310.956 c 0
 389.101 412.591 416.419 515.781 431.488 618.236 c 0
 433.769 633.741 462.436 658.717 495.478 673.986 c 0
 528.518 689.255 553.482 689.063 551.203 673.558 c 0
 535.805 568.869 507.869 463.132 467.809 358.325 c 0
 434.398 270.915 393.224 184.591 344.642 100.283 c 0
 325.704 67.4199 300.842 45.0693 294.059 39.0498 c 0
 281.909 28.2686 265.219 15.3535 243.958 3.07812 c 0
 205.291 -19.2461 171.521 -28.4473 146.395 -28.9805 c 0
 85.876 -30.2666 41.5557 -4.29297 19.1582 34.5029 c 0
 19.1514 34.5137 19.1328 34.5479 19.126 34.5586 c 0
 12.7686 45.5781 33.9883 69.751 66.4922 88.5156 c 0
 98.9961 107.28 130.536 113.566 136.894 102.547 c 0
 136.9 102.535 136.918 102.504 136.925 102.493 c 0
775.285 594.739 m 0
 770.121 603.684 748.674 606.475 692.324 606.475 c 2
 385.431 606.475 l 2
 362.34 606.475 343.195 602.702 330.805 599.204 c 0
 318.115 595.622 311.266 592.11 308.674 590.614 c 0
 300.364 585.816 291.521 574.945 286.709 567.57 c 0
 276.955 552.621 273.221 538.854 271.79 533.133 c 0
 267.712 516.817 237.726 491.889 204.858 477.488 c 0
 171.99 463.088 148.625 464.641 152.704 480.956 c 0
 157.115 498.602 164.621 515.797 176.007 533.247 c 0
 207.071 580.858 257.468 614.276 285.627 630.534 c 0
 319.903 650.323 353.559 663.616 382.911 671.903 c 0
 403.67 677.765 436.839 685.319 475.317 685.319 c 2
 782.209 685.319 l 2
 801.445 685.319 878.18 688.492 893.051 662.73 c 0
 895.967 657.683 897.012 651.214 894.963 643.018 c 0
 890.885 626.702 860.898 601.774 828.031 587.373 c 0
 795.164 572.973 771.799 574.525 775.877 590.841 c 0
 776.344 592.708 775.664 594.084 775.285 594.739 c 0
634.129 295.141 m 1
 363.999 295.141 l 2
 342.014 295.141 344.344 312.837 369.201 334.641 c 0
 394.058 356.445 432.075 374.141 454.062 374.141 c 2
 742.16 374.141 l 2
 754.176 374.141 759.023 369.714 756.789 360.78 c 2
 753.375 347.125 l 2
 749.289 330.778 719.244 305.801 686.312 291.371 c 0
 653.379 276.942 629.969 278.499 634.055 294.846 c 2
 634.129 295.141 l 1
EndSplineSet
Fore
896 651 m 0
 896 617 822 578 791 578 c 0
 773 578 776 585 776 592 c 0
 776 601 756 606 692 606 c 2
 540 606 l 1
 523 524 500 446 474 374 c 1
 742 374 l 2
 754 374 759 370 757 361 c 2
 753 347 l 2
 747 323 684 281 649 281 c 0
 638 281 632 286 634 295 c 1
 442 295 l 1
 411 221 376 155 345 100 c 0
 306 33 215 -29 142 -29 c 0
 47 -29 18 36 18 39 c 0
 18 61 84 108 123 108 c 0
 130 108 135 106 137 103 c 0
 156 69 190 53 223 50 c 1
 281 136 351 313 351 313 c 2
 388 410 414 509 430 606 c 1
 385 606 l 2
 325 606 286 591 272 533 c 0
 266 509 203 468 167 468 c 0
 158 468 152 471 152 477 c 0
 152 479 152 480 153 481 c 2
 180 588 341 685 475 685 c 2
 782 685 l 2
 865 685 896 675 896 651 c 0
EndSplineSet
EndChar
StartChar: G
Encoding: 71 71 8
Width: 651
Flags: HMW
Back
519.577 548.164 m 0
 531.68 571.01 522.119 591.117 520.067 594.67 c 0
 517.415 599.265 510.904 608.422 497.646 612.354 c 0
 474.247 619.295 449.479 622.674 424.901 622.674 c 0
 375.597 622.674 337.951 613.233 313.599 603.111 c 0
 306.375 600.109 300.757 597.274 295.522 594.252 c 0
 281.467 586.137 275.527 580.382 275.053 579.994 c 0
 243.254 554.017 198.994 499.961 176.806 411.205 c 0
 163.091 356.344 160.03 282.844 194.288 223.506 c 0
 202.49 209.298 238.071 150.81 320.521 147.53 c 0
 325.808 147.32 345.272 146.803 366.288 152.112 c 0
 377.44 154.931 386.681 158.624 394.94 163.393 c 0
 407.253 170.501 413.98 176.941 415.18 177.961 c 0
 444.013 202.457 482.961 251.437 499.266 316.652 c 0
 503.345 332.967 533.33 357.896 566.197 372.297 c 0
 599.065 386.697 622.431 385.144 618.352 368.829 c 0
 608.814 330.68 580.827 251.105 491.332 175.07 c 0
 470.304 157.205 445.394 139.295 417.988 123.472 c 0
 380.988 102.11 342.003 86.3564 308.44 77.877 c 0
 290.095 73.2412 261.038 67.415 227.653 68.7432 c 0
 179.241 70.6689 115.311 88.3271 76.5225 155.514 c 0
 45.582 209.104 38.3555 281.571 57.7197 359.028 c 0
 67.9316 399.877 97.2373 499.902 203.293 586.544 c 0
 223.71 603.223 247.341 619.661 272.475 634.172 c 0
 292.87 645.947 313.944 656.292 334.374 664.783 c 0
 400.263 692.17 460.923 701.52 514.787 701.52 c 0
 546.591 701.52 575.845 697.269 602.709 689.301 c 0
 619.702 684.261 630.864 674.732 637.833 662.662 c 0
 653.271 635.922 643.583 606.827 634.132 588.988 c 0
 619.258 560.911 600.298 533.212 576.065 505.771 c 0
 557.444 484.683 520.103 463.207 492.713 457.833 c 0
 465.323 452.459 458.207 465.211 476.828 486.298 c 0
 499.677 512.173 513.486 536.667 519.577 548.164 c 0
330.806 -34.3916 m 0
 347.103 -34.3916 358.253 -31.4346 360.743 -30.4727 c 0
 360.754 -30.4678 359.273 -31.124 357.928 -31.9004 c 1
 485.722 41.8809 357.031 -32.4092 356.493 -32.793 c 1
 432.276 21.2412 494.327 296.897 499.266 316.652 c 0
 503.345 332.967 533.33 357.896 566.197 372.297 c 0
 599.065 386.697 622.431 385.144 618.352 368.829 c 0
 557.02 123.5 514.024 20.9541 410.786 -52.6553 c 0
 401.647 -59.1709 391.571 -65.7031 380.975 -71.8213 c 0
 367.025 -79.875 350.911 -88.0225 332.475 -95.1504 c 0
 292.21 -110.719 261.968 -113.237 240.919 -113.237 c 0
 205.828 -113.237 141.28 -110.389 70.3203 -86.9141 c 0
 54.835 -81.791 66.0283 -60.4688 95.3047 -39.3193 c 0
 124.582 -18.1689 160.91 -5.16211 176.396 -10.2852 c 0
 225.137 -26.4092 277.562 -34.3916 330.806 -34.3916 c 0
EndSplineSet
Fore
361 -30 m 1
 414 1 l 1
 414 1 375 -22 361 -30 c 1
466 467 m 0
 466 482 526 534 526 572 c 0
 526 593 514 608 498 612 c 0
 474 619 449 623 425 623 c 0
 352 623 305 604 275 580 c 0
 217 533 167 433 167 334 c 0
 167 224 231 147 327 147 c 0
 380 147 405 170 415 178 c 0
 444 202 483 251 499 317 c 0
 505 340 568 382 604 382 c 0
 613 382 619 379 619 372 c 0
 619 371 619 370 618 369 c 2
 561 139 513 -25 332 -95 c 0
 292 -111 262 -113 241 -113 c 0
 206 -113 141 -110 70 -87 c 0
 66 -85 63 -82 63 -78 c 0
 63 -56 129 -9 168 -9 c 0
 178 -9 239 -34 331 -34 c 0
 344 -34 353 -33 358 -31 c 1
 392 4 423 73 447 142 c 1
 403 112 321 69 237 69 c 0
 122 69 47 149 47 275 c 0
 47 394 117 574 334 665 c 0
 400 692 461 702 515 702 c 0
 612 702 646 674 646 632 c 0
 646 583 579 509 576 506 c 0
 555 481 508 457 481 457 c 0
 472 457 466 460 466 467 c 0
EndSplineSet
EndChar
StartChar: H
Encoding: 72 72 9
Width: 936
Flags: HMW
Back
294.92 360.836 m 0
 311.383 426.688 321.899 492.494 326.319 557.396 c 0
 327.009 567.519 324.844 577.006 320.36 584.771 c 0
 311.018 600.953 295.131 606.479 282.634 606.475 c 0
 251.045 606.465 226.328 602.345 209.58 597.508 c 0
 205.545 596.342 195.804 593.3 189.278 589.532 c 0
 181.505 585.044 173.687 577.191 170.385 573.792 c 0
 160.826 563.951 148.819 549.359 135.719 526.418 c 0
 124.896 507.466 90.708 483.405 59.4062 472.711 c 0
 28.1045 462.017 11.4834 468.719 22.3066 487.671 c 0
 45.4531 528.205 69.8623 553.288 77.1416 560.781 c 0
 99.7822 584.09 130.362 608.743 166.231 629.453 c 0
 199.237 648.509 232.067 661.656 260.365 669.829 c 0
 311.17 684.503 353.593 685.313 372.494 685.32 c 0
 393.049 685.326 422.802 679.307 438.126 652.763 c 0
 444.231 642.188 447.261 629.483 446.263 614.825 c 0
 441.736 548.365 430.964 480.844 414.006 413.013 c 0
 381.268 282.062 338.276 151.214 285.366 21.6113 c 0
 278.177 4 246.103 -20.667 213.772 -33.4492 c 0
 181.442 -46.2305 161.039 -42.3105 168.229 -24.6992 c 0
 220.231 102.68 262.613 231.609 294.92 360.836 c 0
727.108 280.145 m 0
 710.458 213.545 699.786 146.993 695.243 81.3447 c 0
 694.533 71.0918 696.713 61.4443 701.222 53.6348 c 0
 711.073 36.5693 727.916 32.7031 737.18 33.1064 c 0
 770.085 34.54 790.727 38.4395 798.09 41.0264 c 0
 798.092 41.0273 794.697 39.8398 788.507 36.2656 c 0
 777.911 30.1475 771.681 24.4756 770.88 23.2246 c 1
 772.572 25.8682 774.411 30.0752 775.717 35.3008 c 0
 779.796 51.6152 809.781 76.5439 842.649 90.9443 c 0
 875.517 105.346 898.882 103.792 894.804 87.4775 c 0
 891.487 74.2139 886.072 64.5547 882.027 58.2373 c 0
 869.917 39.3232 846.55 16.5498 811.554 -3.65527 c 0
 792.411 -14.707 775.124 -21.9443 761.141 -26.8564 c 0
 711.76 -44.2031 660.826 -45.2295 651.062 -45.6543 c 0
 613.622 -47.2861 593.215 -31.2607 583.456 -14.3564 c 0
 577.3 -3.69434 574.279 9.16016 575.302 23.9434 c 0
 579.952 91.1426 590.881 159.402 608.022 227.969 c 0
 641.039 360.032 684.305 491.99 737.493 622.713 c 0
 744.654 640.313 776.71 664.984 809.047 677.782 c 0
 841.383 690.579 861.815 686.682 854.653 669.081 c 0
 802.36 540.558 759.697 410.498 727.108 280.145 c 0
167.233 268.965 m 2
 145.247 268.965 147.577 286.661 172.435 308.465 c 0
 197.291 330.27 235.309 347.965 257.295 347.965 c 2
 666.546 347.965 l 2
 688.532 347.965 686.202 330.269 661.345 308.465 c 0
 636.488 286.66 598.471 268.965 576.484 268.965 c 2
 167.233 268.965 l 2
EndSplineSet
Fore
167 -32 m 0
 167 -24 222 99 270 269 c 1
 167 269 l 2
 157 269 152 273 152 279 c 0
 152 301 218 348 257 348 c 2
 291 348 l 1
 310 424 326 523 326 561 c 0
 326 587 308 606 283 606 c 0
 194 606 168 584 136 526 c 0
 118 495 60 468 33 468 c 0
 24 468 19 471 19 477 c 0
 19 480 20 483 22 488 c 1
 86 599 219 685 373 685 c 0
 410 685 446 665 446 621 c 0
 446 569 424 447 397 348 c 1
 641 348 l 1
 681 485 727 597 737 623 c 0
 750 654 814 685 843 685 c 0
 851 685 856 682 856 676 c 0
 856 674 856 672 855 669 c 0
 740 387 695 157 695 78 c 0
 695 52 713 33 736 33 c 0
 740 33 760 34 776 36 c 1
 794 73 854 101 880 101 c 0
 890 101 895 97 895 91 c 0
 895 64 833 -38 651 -46 c 2
 646 -46 l 2
 599 -46 575 -17 575 18 c 0
 575 70 598 191 622 283 c 1
 605 274 589 269 576 269 c 2
 374 269 l 1
 336 145 295 46 285 22 c 0
 273 -9 209 -41 180 -41 c 0
 172 -41 167 -38 167 -32 c 0
EndSplineSet
EndChar
StartChar: I
Encoding: 73 73 10
Width: 609
Flags: HMW
Back
339.196 606.475 m 2
 315.246 606.475 192.121 608.199 149.227 590.35 c 0
 148.886 590.208 149.845 590.57 152.331 592.006 c 0
 152.924 592.348 159.44 595.797 160.431 597.127 c 1
 156.709 592.131 152.857 584.034 150.468 574.476 c 0
 146.389 558.161 116.403 533.232 83.5352 518.832 c 0
 50.668 504.431 27.3027 505.984 31.3809 522.299 c 0
 37.501 546.777 49.9277 563.412 53.625 568.374 c 0
 69.7354 589.994 95.5137 612.429 129.284 631.926 c 0
 143.542 640.157 157.376 646.767 169.872 651.967 c 0
 241.896 681.938 315.037 685.319 429.082 685.319 c 2
 692.345 685.319 l 2
 714.287 685.319 711.961 667.658 687.152 645.896 c 0
 662.344 624.136 624.401 606.475 602.459 606.475 c 2
 339.196 606.475 l 2
483.016 613.966 m 1
 480.461 612.49 493.203 620.739 493.137 620.673 c 0
 446.441 573.745 409.019 411.137 398.441 368.829 c 0
 361.869 222.543 329.053 134.584 260.202 73.5781 c 0
 246.893 61.7861 229.258 48.4277 208.134 36.2324 c 0
 200.714 31.9473 164.996 11.7109 125.7 3.87891 c 0
 112.13 1.17383 100.261 0.161133 88.8916 0.162109 c 0
 66.9492 0.162109 69.2754 17.8232 94.084 39.584 c 0
 118.893 61.3457 156.836 79.0068 178.778 79.0068 c 0
 184.736 79.0068 189.563 79.5645 192.684 80.1855 c 0
 197.687 81.1826 190.493 79.2734 185.087 76.1523 c 1
 199.147 84.2705 178.219 71.3828 179.687 72.6836 c 0
 235.2 121.873 277.372 308.721 279.355 316.652 c 0
 312.162 447.88 338.683 546.169 401.653 609.452 c 0
 418.555 626.438 438.431 641.451 459.969 653.886 c 0
 466.718 657.782 500.088 676.636 534.974 682.934 c 0
 543.439 684.462 551.506 685.319 560.714 685.319 c 0
 582.655 685.319 580.329 667.658 555.521 645.897 c 0
 530.712 624.136 492.77 606.475 470.827 606.475 c 0
 467.582 606.475 465.69 606.185 465.123 606.082 c 0
 465.12 606.081 472.737 608.031 483.016 613.966 c 1
475.045 79.085 m 2
 496.171 79.085 509.551 82.8682 511.821 83.6309 c 0
 511.833 83.6348 508.569 82.4395 503.068 79.2637 c 0
 492.293 73.042 486.926 67.5713 486.36 66.7314 c 1
 487.834 68.918 489.501 72.8545 490.457 76.6797 c 0
 494.545 93.0264 524.59 118.004 557.522 132.433 c 0
 590.455 146.861 613.865 145.305 609.778 128.957 c 0
 606.518 115.918 600.694 106.166 596.454 99.875 c 0
 576.44 70.1797 541.955 48.3818 526.163 39.2646 c 0
 505.356 27.252 486.226 19.4229 471.181 14.3711 c 0
 432.416 1.35254 398.965 0.0839844 384.982 0.0839844 c 2
 -9.92188 0.0839844 l 2
 -31.9072 0.0839844 -29.5771 17.7803 -4.7207 39.585 c 0
 20.1367 61.3887 58.1543 79.085 80.1406 79.085 c 2
 475.045 79.085 l 2
EndSplineSet
Fore
-25 10 m 0
 -25 32 41 79 80 79 c 2
 186 79 l 1
 239 137 277 309 279 317 c 0
 311 444 336 540 399 606 c 1
 339 606 l 2
 335 606 329 607 321 607 c 0
 281 607 199 605 158 593 c 1
 150 578 150 548 84 519 c 0
 68 512 55 509 46 509 c 0
 37 509 31 512 31 519 c 0
 31 544 71 611 170 652 c 0
 242 682 315 685 429 685 c 2
 692 685 l 2
 702 685 707 682 707 675 c 0
 707 653 642 606 602 606 c 2
 482 606 l 1
 395 482 403 208 266 79 c 1
 475 79 l 2
 481 79 487 79 492 80 c 1
 510 114 568 142 595 142 c 0
 605 142 610 139 610 132 c 0
 610 98 520 0 385 0 c 2
 -10 0 l 2
 -20 0 -25 4 -25 10 c 0
EndSplineSet
EndChar
StartChar: J
Encoding: 74 74 11
Width: 744
Flags: HMW
Back
575.599 606.475 m 2
 522.976 606.475 486.502 591.344 480.521 588.912 c 0
 472.71 585.739 466.676 582.712 461.423 579.679 c 0
 452.563 574.564 442.43 566.818 434.194 558.717 c 0
 398.813 523.908 389.146 483.495 387.307 476.134 c 0
 383.228 459.818 353.242 434.891 320.374 420.489 c 0
 287.507 406.089 264.142 407.643 268.22 423.957 c 0
 274.615 449.537 290.971 496.611 344.351 549.126 c 0
 369.344 573.715 402.286 598.763 438.376 619.6 c 0
 460.101 632.143 482.357 642.9 503.73 651.585 c 0
 529.741 662.154 591.507 685.319 665.484 685.319 c 2
 890.495 685.32 l 2
 912.438 685.32 910.111 667.658 885.304 645.897 c 0
 860.495 624.136 822.552 606.475 800.609 606.475 c 2
 575.599 606.475 l 2
185.75 34.2598 m 0
 211.459 -10.2715 266.907 -34.3916 325.094 -34.3916 c 0
 339.13 -34.3916 350.789 -32.582 358.144 -31.0488 c 0
 360.503 -30.5576 376.368 -27.7432 391.646 -18.9229 c 0
 402.707 -12.5371 407.322 -7.94141 410.499 -5.18652 c 0
 434.281 15.4355 466.724 55.8174 480.521 111.006 c 0
 556.37 414.406 608.184 544.504 725.761 626.684 c 0
 734.28 632.639 743.544 638.575 753.241 644.174 c 0
 766.933 652.079 782.66 660.073 800.793 667.167 c 0
 840.1 682.544 870.011 685.319 890.495 685.319 c 0
 912.438 685.32 910.112 667.658 885.304 645.897 c 0
 860.495 624.136 822.552 606.475 800.61 606.475 c 0
 792.57 606.475 779.775 605.322 773.682 602.938 c 0
 773.668 602.934 775.188 603.618 776.289 604.254 c 1
 774.181 603.037 777.949 605.33 777.251 604.842 c 0
 685.185 540.493 606.339 190.11 599.607 163.183 c 0
 580.036 84.9014 527.635 27.4414 488.816 -6.21973 c 0
 470.587 -22.0264 446.045 -40.7422 414.693 -58.8428 c 0
 369.718 -84.8096 327.071 -99.8789 292.612 -107.061 c 0
 272.184 -111.317 253.232 -113.236 235.208 -113.236 c 0
 156.004 -113.236 95.5518 -81.4824 67.9844 -33.7314 c 0
 51.5234 -5.21973 45.8799 29.9326 56.1748 71.1104 c 0
 60.2539 87.4248 90.2393 112.354 123.107 126.755 c 0
 155.975 141.155 179.34 139.602 175.261 123.287 c 0
 166.918 89.917 171.328 59.2402 185.75 34.2598 c 0
EndSplineSet
Fore
906 675 m 0
 906 653 840 606 801 606 c 0
 784 606 776 603 774 603 c 1
 684 533 606 190 600 163 c 0
 561 7 372 -113 235 -113 c 0
 135 -113 51 -59 51 31 c 0
 51 44 53 57 56 71 c 0
 62 95 125 137 161 137 c 0
 170 137 176 133 176 127 c 0
 176 123 171 112 171 91 c 0
 171 17 237 -34 325 -34 c 0
 376 -34 401 -13 410 -5 c 0
 434 15 467 56 481 111 c 0
 541 348 589 512 699 606 c 1
 576 606 l 2
 497 606 412 576 387 476 c 0
 381 452 318 411 283 411 c 0
 273 411 268 414 268 420 c 2
 268 424 l 2
 304 566 501 685 665 685 c 2
 890 685 l 2
 901 685 906 682 906 675 c 0
EndSplineSet
EndChar
StartChar: K
Encoding: 75 75 12
Width: 834
Flags: HMW
Back
163.825 380.527 m 0
 182.693 456.004 193.533 531.416 196.114 605.406 c 1
 156.907 585.625 l 2
 123.801 568.922 96.168 566.687 95.2275 580.635 c 0
 94.2871 594.583 120.394 619.46 153.5 636.163 c 2
 254.986 687.365 l 2
 290.432 705.249 316.804 707.034 316.689 691.542 c 0
 316.064 606.93 304.756 520.084 282.911 432.704 c 0
 250.604 303.479 208.043 174.356 155.562 46.4941 c 0
 148.325 28.8633 116.222 4.20215 83.9023 -8.55469 c 0
 51.583 -21.3115 31.2246 -17.3555 38.4609 0.274414 c 0
 90.0137 125.874 131.956 253.05 163.825 380.527 c 0
691.692 618.366 m 0
 683.768 632.091 666.883 635.066 656.938 635.066 c 0
 651.23 635.066 651.416 634.459 649.946 634.151 c 0
 631.448 630.283 592.54 614.493 539.552 583.9 c 0
 458.747 537.248 388.3 480.773 378.736 455.074 c 0
 377.964 453 384.352 478.058 378.093 453.023 c 0
 370.313 421.906 407.317 301.28 472.444 188.48 c 0
 520.223 105.728 567.251 57.3018 597.48 50.918 c 0
 600.312 50.3203 593.285 51.457 599.295 50.5938 c 0
 601.163 50.3252 595.835 50.7969 600.633 50.4453 c 0
 600.864 50.4277 565.693 50.4141 601.355 50.4141 c 0
 628.252 50.4141 650.414 55.5537 663.564 60.167 c 0
 670.449 62.582 675.376 64.9639 678.714 66.8916 c 0
 684.698 70.3457 691.234 75.959 696.847 85.8184 c 0
 699.641 90.7275 702.283 96.9004 704.092 104.136 c 0
 708.062 120.019 732.319 140.417 758.237 149.667 c 0
 784.155 158.918 801.967 153.535 797.996 137.652 c 0
 795.23 126.587 790.876 115.65 784.613 104.647 c 0
 761.248 63.5996 720.998 37.8896 701.844 26.8311 c 0
 683.806 16.417 665.551 8.36133 648.153 2.25781 c 0
 637.155 -1.60059 595.641 -16.1807 541.664 -16.1807 c 0
 506.001 -16.1807 535.509 -15.958 535.489 -15.957 c 0
 526.705 -15.3125 535.311 -16.1309 529.855 -15.3467 c 0
 521.212 -14.1055 529.698 -15.4912 524.627 -14.4199 c 0
 474.241 -3.78027 423.055 61.2363 380.303 135.282 c 0
 332.754 217.637 270.247 363.741 284.188 419.509 c 0
 286.274 427.853 285.876 425.179 286.417 426.633 c 0
 307.682 483.771 415.975 565.967 516.422 623.961 c 0
 568.53 654.045 635.709 687.449 687.046 698.186 c 0
 697.37 700.345 707.41 701.662 716.63 701.662 c 0
 744.999 701.662 771.9 692.233 783.834 671.564 c 0
 789.595 661.587 791.771 649.093 787.921 633.687 c 0
 783.95 617.804 759.692 597.406 733.775 588.155 c 0
 707.857 578.905 690.045 584.288 694.016 600.171 c 0
 695.59 606.467 694.864 612.872 691.692 618.366 c 0
EndSplineSet
Fore
37 -7 m 0
 37 4 187 334 196 605 c 1
 157 586 l 2
 138 576 122 571 110 571 c 0
 103 571 95 573 95 581 c 0
 95 595 121 620 154 636 c 2
 255 687 l 2
 274 697 291 702 302 702 c 0
 311 702 317 699 317 692 c 0
 317 468 214 189 156 46 c 0
 143 16 79 -16 51 -16 c 0
 42 -16 37 -13 37 -7 c 0
535 -16 m 2
 423 -9 282 305 282 401 c 0
 282 411 284 419 286 427 c 0
 322 521 613 702 717 702 c 0
 763 702 790 677 790 649 c 0
 790 610 738 584 711 584 c 0
 700 584 693 588 693 596 c 0
 693 600 695 601 695 607 c 0
 695 623 679 635 657 635 c 0
 611 635 398 507 379 455 c 2
 379 455 385 482 378 453 c 0
 377 450 377 447 377 443 c 0
 377 355 511 69 597 51 c 1
 599 51 l 1
 599 51 596 51 601 50 c 1
 689 50 700 89 704 104 c 0
 709 124 750 154 781 154 c 0
 792 154 799 150 799 142 c 0
 799 141 798 139 798 138 c 0
 778 58 665 -16 542 -16 c 2
 535 -16 l 2
EndSplineSet
EndChar
StartChar: L
Encoding: 76 76 13
Width: 753
Flags: HMW
Back
604.2 25.0146 m 0
 568.459 4.37988 540.931 -4.23926 528.088 -7.86914 c 0
 515.662 -11.3809 495.79 -16.0898 473.502 -16.0898 c 0
 356.531 -16.0908 254.618 29.9385 147.197 29.9385 c 0
 143.129 29.9385 139.949 29.502 138.651 29.2861 c 0
 133.039 28.3535 140.354 29.7646 148.99 34.751 c 1
 148.988 34.75 162.521 45.835 156.294 38.875 c 0
 136.564 16.8271 96.2295 -6.87695 66.2607 -14.0371 c 0
 36.291 -21.1963 27.9795 -9.11328 47.709 12.9336 c 0
 64.165 31.3252 90.1602 54.0918 125.909 74.7314 c 0
 163.746 96.5762 198.461 107.686 222.176 111.627 c 0
 230.916 113.08 239.216 113.928 248.722 113.928 c 0
 365.691 113.928 467.604 67.8994 575.026 67.8994 c 0
 584.42 67.8994 590.334 69.5918 590.731 69.7041 c 0
 591.589 69.9473 587.711 68.8008 581.118 64.9951 c 1
 581.122 64.9971 569.404 56.0459 572.722 59.6006 c 0
 579.32 66.6709 585.82 78.5898 589.004 91.3232 c 0
 593.118 107.783 625.387 134.389 661.03 150.713 c 0
 696.674 167.036 722.262 166.925 718.146 150.466 c 0
 709.719 116.755 685.407 89.875 678.634 82.6182 c 0
 662.351 65.1699 636.678 43.7656 604.2 25.0146 c 0
524.324 587.357 m 0
 511.533 609.514 491.028 617.582 473.57 617.582 c 0
 462.433 617.582 448.018 616.075 440.271 613.03 c 0
 440.26 613.025 441.963 613.795 443.38 614.613 c 1
 443.259 614.543 445.001 615.637 444.647 615.389 c 0
 371.063 563.862 310.081 363.667 291.055 287.56 c 0
 261.473 169.229 231.18 111.715 181.767 60.8428 c 0
 166.845 45.4814 151.35 32.2734 136.163 20.8252 c 0
 105.638 -2.18555 65.5586 -18.5859 46.7012 -15.7822 c 0
 27.8447 -12.9785 37.3145 7.97266 67.8398 30.9834 c 0
 69.8545 32.502 73.7852 35.7529 78.6963 40.8096 c 0
 119.751 83.0752 143.098 153.16 161.911 228.417 c 0
 220.51 462.814 294.597 568.619 387.92 633.969 c 0
 397.878 640.941 408.812 647.962 420.299 654.594 c 0
 436.022 663.672 454.315 672.974 474.871 681.055 c 0
 497.316 689.879 533.477 701.571 575.095 701.571 c 0
 616.485 701.571 640.418 681.732 652.26 661.221 c 0
 665.021 639.116 668.551 610.249 660.478 577.958 c 0
 656.362 561.498 624.095 534.893 588.451 518.568 c 0
 552.808 502.245 527.22 502.356 531.334 518.815 c 0
 537.416 543.143 535.328 568.297 524.324 587.357 c 0
EndSplineSet
Fore
51 -16 m 0
 43 -16 37 -13 37 -7 c 0
 37 6 66 33 88 49 c 1
 190 167 160 504 420 655 c 0
 489 694 544 702 575 702 c 0
 629 702 665 665 665 612 c 0
 665 601 663 590 660 578 c 0
 655 554 584 506 545 506 c 0
 536 506 531 509 531 516 c 0
 531 519 535 527 535 545 c 0
 535 585 512 618 474 618 c 0
 452 618 440 611 440 611 c 1
 440 612 441 612 443 614 c 1
 370 561 310 363 291 288 c 0
 273 216 254 160 223 112 c 1
 232 113 241 114 249 114 c 0
 366 114 468 68 575 68 c 2
 579 68 l 1
 591 89 588 117 661 151 c 0
 679 159 694 163 704 163 c 0
 713 163 719 160 719 154 c 0
 719 100 588 -16 474 -16 c 0
 357 -16 255 30 148 30 c 1
 136 21 l 2
 104 -3 68 -16 51 -16 c 0
EndSplineSet
EndChar
StartChar: M
Encoding: 77 77 14
Width: 1316
Flags: HMW
Back
609.537 282.203 m 0
 623.689 242.261 641.209 204.186 661.932 168.292 c 2
 675.894 145.202 l 1
 620.782 98.916 l 1
 600.324 34.4463 l 1
 593.958 34.4609 589.219 35.9971 586.852 39.2188 c 0
 572.193 59.1709 558.633 79.9434 546.202 101.476 c 0
 524.986 138.225 507.059 177.187 492.575 218.064 c 0
 459.114 312.504 429.977 409.151 405.227 507.779 c 1
 388.453 435.64 366.832 362.794 340.48 290.395 c 0
 333.963 272.487 327.166 254.625 320.101 236.829 c 0
 281.431 139.438 206.651 -52.2432 126.061 -46.5869 c 0
 111.566 -45.5693 97.7578 -42.6895 84.8984 -38.0098 c 0
 78.9004 -35.8271 73.1104 -33.251 67.5537 -30.2852 c 0
 56.6191 -24.4473 47.0576 -17.6328 39.8682 -9.21191 c 0
 30.5283 1.72949 35.0312 38.1064 49.9199 71.9883 c 0
 64.8076 105.87 84.4717 124.488 93.8115 113.548 c 0
 98.3701 108.208 106.595 101.958 116.189 96.8359 c 0
 121.062 94.2344 126.177 91.957 131.498 90.0205 c 0
 142.908 85.8672 155.272 83.2812 168.247 82.3701 c 0
 203.902 79.8682 230.679 137.163 280.814 263.438 c 0
 286.475 277.695 291.896 291.942 297.081 306.19 c 0
 342.561 431.148 364.871 541.291 375.715 633.834 c 1
 376.201 633.598 l 1
 376.461 633.598 l 1
 376.284 646.989 399.617 669.902 430.502 686.167 c 0
 462.955 703.258 491.517 706.567 494.255 693.556 c 0
 523.947 552.477 562.436 415.142 609.537 282.203 c 0
1147.58 218.549 m 0
 1144.95 170.852 1147.46 124.201 1155.04 79.3711 c 0
 1155.7 75.4893 1156.96 71.9902 1158.72 68.9521 c 0
 1164.4 59.1074 1173.64 56.0029 1179.21 55.2363 c 1
 1207.1 69.3076 l 2
 1240.21 86.0107 1267.84 88.2471 1268.78 74.2979 c 0
 1269.72 60.3496 1243.62 35.4727 1210.51 18.7695 c 2
 1169.57 -1.88379 l 2
 1137.16 -18.2344 1113.57 -22.7471 1098.08 -23.6484 c 0
 1089.43 -24.1514 1055.92 -24.9561 1040.95 0.959961 c 0
 1038.24 5.65723 1036.32 10.9707 1035.32 16.9062 c 0
 1027.49 63.1582 1024.89 111.348 1027.61 160.792 c 0
 1034.35 283.335 1047.79 407.043 1067.88 531.421 c 1
 1171.73 637.041 l 1
 1203.39 678.274 l 1
 1203.38 677.562 1203.3 676.812 1203.15 676.023 c 0
 1174.46 522.469 1155.88 369.65 1147.58 218.549 c 0
807.878 317.223 m 0
 933.467 439.889 1056.44 564.951 1176.66 692.272 c 0
 1194.02 710.661 1205.91 700.842 1203.19 670.354 c 0
 1200.46 639.866 1184.16 600.198 1166.8 581.81 c 0
 1045.44 453.287 921.405 327.142 794.806 203.487 c 0
 735.943 145.996 674.689 91.2402 611.294 39.3965 c 0
 594.517 25.6768 585.151 41.207 590.389 74.0615 c 0
 595.627 106.916 613.494 144.716 630.271 158.436 c 0
 691.915 208.847 751.228 261.891 807.878 317.223 c 0
EndSplineSet
Fore
376 634 m 0
 376 657 443 702 479 702 c 0
 488 702 493 699 494 694 c 0
 508 627 579 319 656 179 c 1
 708 224 759 270 808 317 c 2
 1177 692 l 2
 1183 699 1188 702 1192 702 c 0
 1199 702 1204 693 1204 679 c 0
 1204 659 1163 505 1148 219 c 0
 1147 207 1147 196 1147 185 c 0
 1147 72 1159 58 1179 55 c 1
 1207 69 l 2
 1226 79 1242 83 1254 83 c 0
 1261 83 1269 81 1269 74 c 0
 1269 59 1243 35 1211 19 c 2
 1170 -2 l 2
 1140 -17 1113 -24 1092 -24 c 0
 1060 -24 1040 -9 1035 17 c 0
 1030 51 1027 87 1027 123 c 0
 1027 193 1041 351 1059 472 c 1
 795 203 l 2
 784 192 615 33 599 34 c 0
 593 35 589 36 587 39 c 0
 531 116 477 221 405 508 c 1
 388 436 367 363 340 290 c 2
 320 237 l 2
 282 141 209 -47 130 -47 c 0
 87 -47 51 -22 40 -9 c 0
 37 -5 35 2 35 11 c 0
 35 53 66 117 87 117 c 0
 93 117 119 82 170 82 c 0
 205 82 232 140 281 263 c 2
 297 306 l 2
 343 431 365 541 376 634 c 0
EndSplineSet
EndChar
StartChar: N
Encoding: 78 78 15
Width: 898
Flags: HMW
Back
863.316 634.359 m 1
 861.625 630.451 858.904 623.749 855.317 613.895 c 0
 842.637 579.055 829.899 536.251 813.667 480.511 c 0
 769.481 328.782 729.753 176.831 694.525 24.7744 c 1
 692.813 28.9971 l 1
 645.557 28.9971 l 1
 680.323 176.455 719.215 324.078 762.184 471.625 c 0
 770.287 499.45 792.046 575.092 811.918 629.69 c 0
 828.645 675.647 840.846 698.206 844.34 704.632 c 0
 853.5 721.477 861.973 733.155 869.129 740.729 c 0
 907.988 781.853 967.295 814.621 1051.63 814.621 c 0
 1065.1 814.621 1066.85 785.725 1055.56 750.121 c 0
 1044.26 714.517 1024.16 685.62 1010.7 685.62 c 0
 947.863 685.62 895.105 665.134 863.316 634.359 c 1
57.0156 96.6084 m 0
 61.6836 94.1748 66.5625 92.0303 71.625 90.1875 c 0
 83.3135 85.9336 95.9785 83.291 109.269 82.3711 c 0
 121.312 81.5371 128.586 85.3428 133.981 89.0156 c 0
 140.199 93.249 147.794 98.2373 161.663 130.589 c 0
 165.453 139.429 169.627 150.172 173.988 162.153 c 0
 178.558 174.708 183.319 188.567 188.298 203.095 c 0
 245.805 370.912 270.956 518.511 281.285 634.18 c 1
 281.499 633.598 l 1
 337.007 633.598 l 1
 319.159 490.205 284.828 342.134 234.229 194.467 c 0
 229.243 179.914 223.688 163.665 217.388 146.357 c 0
 211.37 129.826 204.664 112.28 196.897 94.1592 c 0
 158.185 3.84375 124.565 -23.8408 110.306 -33.5479 c 0
 95.6631 -43.5156 81.4756 -47.583 67.0977 -46.5869 c 0
 52.2832 -45.5615 38.168 -42.626 25.0254 -37.8428 c 0
 19.333 -35.7705 13.8232 -33.3506 8.51855 -30.5859 c 0
 -2.76367 -24.7041 -12.6494 -17.8037 -20.0605 -9.29492 c 0
 -29.4629 1.50293 -25.043 37.8008 -10.1943 71.7285 c 0
 4.6543 105.656 24.3369 124.429 33.7402 113.632 c 0
 38.5137 108.151 47.0742 101.791 57.0156 96.6084 c 0
573.418 231.424 m 0
 587.35 199.896 602.856 169.338 619.889 139.836 c 0
 641.178 102.962 664.849 67.7344 690.805 34.3164 c 0
 698.67 24.1885 679.405 0.594727 647.801 -18.3477 c 0
 616.197 -37.29 584.163 -44.4443 576.297 -34.3164 c 0
 549.883 -0.308594 525.807 35.5234 504.159 73.0195 c 0
 486.84 103.02 471.075 134.086 456.912 166.138 c 0
 390.472 316.494 332.168 471.55 282.184 630.815 c 0
 278.293 643.211 301.379 667.51 333.714 685.052 c 0
 366.049 702.594 395.449 706.771 399.34 694.374 c 0
 449.138 535.702 507.226 381.222 573.418 231.424 c 0
EndSplineSet
Fore
281 634 m 0
 282 657 348 702 385 702 c 0
 392 702 398 699 399 694 c 0
 457 510 554 254 620 140 c 0
 632 119 644 99 658 80 c 1
 692 220 789 603 844 705 c 0
 883 775 961 815 1052 815 c 0
 1060 815 1063 806 1063 794 c 0
 1063 757 1034 686 1011 686 c 0
 948 686 895 665 863 634 c 1
 839 577 759 302 695 25 c 1
 693 29 l 1
 693 5 626 -39 590 -39 c 0
 583 -39 579 -37 576 -34 c 0
 529 26 489 93 457 166 c 0
 406 281 360 398 319 518 c 1
 300 411 271 303 234 194 c 2
 217 146 l 2
 181 47 132 -47 71 -47 c 0
 28 -47 -8 -23 -20 -9 c 0
 -23 -5 -25 2 -25 11 c 0
 -25 53 6 117 27 117 c 0
 30 117 32 116 34 114 c 0
 46 99 81 83 109 83 c 0
 138 83 150 95 174 162 c 2
 188 203 l 2
 245 371 271 519 281 634 c 0
EndSplineSet
EndChar
StartChar: O
Encoding: 79 79 16
Width: 867
Flags: HMW
Back
353.176 625.482 m 0
 299.285 594.368 220.035 517.53 191.43 403.105 c 0
 169.842 316.754 179.688 234.662 215.222 173.112 c 0
 255.774 102.871 327.395 62.8066 412.245 62.8066 c 0
 451.796 62.8066 504.079 71.1143 552.395 99.0098 c 0
 604.075 128.848 682.938 202.718 711.422 316.652 c 0
 732.9 402.568 726.527 486.954 693.074 544.898 c 0
 663.293 596.483 615.853 622.674 558.855 622.674 c 0
 552.231 622.674 547.735 622.199 546.021 622.021 c 0
 538.514 621.234 527.757 619.229 521.98 615.895 c 0
 515.677 612.255 513.02 609.648 507.403 604.551 c 0
 480.437 580.07 449.961 537.191 426.571 484.107 c 0
 418.693 466.227 386.191 441.648 354.021 429.245 c 0
 321.853 416.843 302.138 421.288 310.017 439.169 c 0
 332.576 490.369 367.798 550.042 424.537 601.548 c 0
 444.438 619.613 469.256 638.681 498.934 655.815 c 0
 544.894 682.35 588.813 696.432 625.805 700.305 c 0
 635.521 701.322 644.271 701.52 648.741 701.52 c 0
 701.369 701.52 769.222 684.979 810.84 612.89 c 0
 847.086 550.107 853.706 461.623 830.508 368.829 c 0
 804.08 263.12 722.569 144.033 575.441 59.0889 c 0
 485.519 7.17188 397.038 -16.0391 322.358 -16.0391 c 0
 213.152 -16.0381 138.184 34.5762 97.4561 105.12 c 0
 56.5879 175.909 50.6953 264.34 72.3428 350.929 c 0
 97.8086 452.79 176.887 576.929 330.129 665.403 c 0
 345.036 674.01 360.354 682.061 375.721 689.359 c 0
 408.814 705.078 434.614 705.622 433.308 690.574 c 0
 432.002 675.525 404.083 650.555 370.989 634.835 c 0
 364.771 631.882 358.936 628.808 353.176 625.482 c 0
EndSplineSet
Fore
60 254 m 0
 60 536 364 702 418 702 c 0
 428 702 433 698 433 692 c 0
 433 674 400 648 371 635 c 0
 260 582 180 444 180 313 c 0
 180 170 273 63 412 63 c 0
 615 63 724 256 724 416 c 0
 724 527 670 623 559 623 c 0
 527 623 519 615 507 605 c 0
 480 580 450 537 427 484 c 0
 413 453 350 422 322 422 c 0
 313 422 308 425 308 431 c 0
 308 434 309 436 310 439 c 0
 390 621 548 702 649 702 c 0
 777 702 844 603 844 474 c 0
 844 180 534 -16 322 -16 c 0
 156 -16 60 102 60 254 c 0
EndSplineSet
EndChar
StartChar: P
Encoding: 80 80 17
Width: 770
Flags: HMW
Back
246.347 288.761 m 0
 273.856 398.803 291.207 508.745 298.128 617.129 c 0
 299.078 632.008 326.719 656.972 359.825 672.852 c 0
 392.931 688.731 419.028 689.544 418.078 674.665 c 0
 411.056 564.693 393.448 453.001 365.433 340.938 c 0
 337.417 228.872 299.112 116.912 250.898 6.36621 c 0
 243.116 -11.4775 210.673 -36.0693 178.48 -48.5254 c 0
 146.288 -60.9814 126.477 -56.6094 134.259 -38.7656 c 0
 181.278 69.0439 218.836 178.719 246.347 288.761 c 0
166.732 581.22 m 0
 163.081 579.111 156.704 572.557 151.021 563.333 c 0
 146.992 556.795 142.029 547.057 138.548 533.133 c 0
 134.47 516.817 104.483 491.89 71.6162 477.488 c 0
 38.748 463.088 15.3828 464.641 19.4619 480.956 c 0
 23.3867 496.654 29.6201 511.707 39.0332 526.983 c 0
 59.7598 560.62 95.9814 593.599 143.685 621.141 c 0
 176.174 639.898 206.483 651.769 229.896 659.395 c 0
 269.197 672.194 327.344 685.319 403.047 685.319 c 0
 424.988 685.319 422.662 667.658 397.854 645.896 c 0
 373.046 624.136 335.103 606.475 313.16 606.475 c 0
 260.189 606.475 215.957 598.93 187.035 589.51 c 0
 174.993 585.588 168.334 582.145 166.732 581.22 c 0
595.828 323.1 m 0
 608.906 330.649 617.3 337.762 620.348 340.35 c 0
 666.084 379.188 678.937 430.51 681.187 439.51 c 0
 689.232 471.693 685.435 499.049 672.355 521.704 c 0
 638.511 580.327 543.178 606.475 441.472 606.475 c 2
 313.16 606.475 l 2
 291.218 606.475 293.544 624.136 318.353 645.896 c 0
 343.161 667.658 381.104 685.319 403.047 685.319 c 2
 531.358 685.319 l 2
 641.986 685.319 750.916 657.603 790.121 589.696 c 0
 805.254 563.483 810.134 531.132 800.272 491.687 c 0
 787.497 440.583 755.503 387.562 696.445 337.413 c 0
 677.119 321.001 651.54 302.037 618.876 283.179 c 0
 570.539 255.271 468.181 205.808 341.305 205.808 c 0
 319.363 205.808 321.689 223.469 346.497 245.23 c 0
 371.306 266.991 409.249 284.652 431.191 284.652 c 0
 508.516 284.653 567.091 306.508 595.828 323.1 c 0
EndSplineSet
Fore
132 -46 m 0
 132 -30 271 232 297 606 c 1
 244 604 189 594 167 581 c 0
 158 576 145 559 139 533 c 0
 133 509 70 468 34 468 c 0
 25 468 19 471 19 477 c 0
 19 556 178 685 403 685 c 2
 531 685 l 2
 642 685 806 654 806 532 c 0
 806 378 577 206 341 206 c 0
 335 206 330 207 328 210 c 1
 305 138 279 70 251 6 c 0
 237 -25 174 -55 146 -55 c 0
 138 -55 132 -53 132 -46 c 0
336 234 m 1
 358 261 406 285 431 285 c 0
 510 285 582 307 620 340 c 0
 650 366 685 419 685 471 c 0
 685 579 540 606 441 606 c 2
 412 606 l 1
 399 476 371 350 336 234 c 1
EndSplineSet
EndChar
StartChar: Q
Encoding: 81 81 18
Width: 897
Flags: HMW
Back
485.532 72.8145 m 0
 506.779 80.627 525.947 89.8955 542.05 99.1924 c 0
 604.464 135.227 683.473 209.375 710.291 316.652 c 0
 728.386 389.028 722.951 462.678 688.781 521.863 c 0
 651.679 586.13 585.521 622.675 508.401 622.675 c 0
 452.603 622.675 409.241 606.197 382.093 590.523 c 0
 339.929 566.18 270.306 503.183 245.099 402.352 c 0
 231.585 348.297 238.13 296.868 260.774 257.646 c 0
 294.456 199.305 352.502 181.824 397.043 181.824 c 0
 415.918 181.824 463.616 183.599 516.566 203.883 c 0
 548.692 216.189 568.232 211.612 560.182 193.666 c 0
 552.131 175.719 519.523 151.165 487.397 138.857 c 0
 463.057 129.533 390.76 102.979 307.157 102.979 c 0
 254.565 102.979 183.479 119.556 143.009 189.653 c 0
 118.099 232.801 110.571 288.413 126.012 350.175 c 0
 149.643 444.698 223.288 552.064 359.046 630.444 c 0
 444.855 679.986 528.433 701.52 598.287 701.52 c 0
 699.688 701.52 769.04 654.821 806.547 589.855 c 0
 843.318 526.163 848.853 446.729 829.378 368.829 c 0
 798.953 247.129 697.997 136.002 565.097 59.2715 c 0
 532.855 40.6572 494.76 21.8779 452.538 6.35352 c 0
 335.998 -36.4951 230.082 -39.4229 150.322 -39.4229 c 0
 128.38 -39.4229 130.706 -21.7607 155.515 0 c 0
 180.323 21.7617 218.266 39.4229 240.208 39.4229 c 0
 342.639 39.4219 418.607 48.208 485.532 72.8145 c 0
757.106 -93.9766 m 0
 747.178 -99.709 736.428 -105.385 723.016 -111.339 c 0
 706.199 -118.804 662.478 -136.621 614.906 -136.621 c 0
 442.266 -136.621 310.507 -39.4229 150.322 -39.4229 c 0
 128.38 -39.4229 130.706 -21.7617 155.515 0 c 0
 180.322 21.7607 218.266 39.4229 240.208 39.4229 c 0
 412.85 39.4229 544.608 -57.7764 704.792 -57.7764 c 0
 714.333 -57.7764 729.483 -55.9121 736.228 -52.918 c 0
 736.264 -52.9023 733.915 -54.1396 734.059 -54.0566 c 0
 734.067 -54.0518 729.472 -57.3203 730.341 -56.5166 c 0
 731.598 -55.3545 741.628 -45.6299 746.514 -26.0879 c 0
 750.593 -9.77344 780.578 15.1553 813.446 29.5557 c 0
 846.313 43.957 869.679 42.4033 865.6 26.0889 c 0
 860.963 7.54199 849.51 -19.9658 814.908 -51.957 c 0
 801.483 -64.3682 781.725 -79.7637 757.106 -93.9766 c 0
EndSplineSet
Fore
118 287 m 0
 118 495 379 702 598 702 c 0
 752 702 840 593 840 455 c 0
 840 212 594 58 453 6 c 2
 441 2 l 1
 529 -25 612 -58 705 -58 c 0
 713 -58 725 -56 733 -54 c 1
 750 -35 738 -3 813 30 c 0
 829 36 842 39 851 39 c 0
 860 39 866 36 866 30 c 0
 866 -23 742 -137 615 -137 c 0
 442 -137 311 -39 150 -39 c 0
 140 -39 135 -36 135 -30 c 0
 135 -8 201 39 240 39 c 0
 372 39 465 54 542 99 c 0
 652 163 720 278 720 396 c 0
 720 529 631 623 508 623 c 0
 330 623 238 453 238 347 c 0
 238 253 302 182 397 182 c 0
 483 182 518 211 547 211 c 0
 556 211 562 207 562 201 c 0
 562 168 450 103 307 103 c 0
 188 103 118 183 118 287 c 0
EndSplineSet
EndChar
StartChar: R
Encoding: 82 82 19
Width: 939
Flags: HMW
Back
251.294 308.552 m 0
 277.15 411.978 292.853 515.306 298.12 616.979 c 0
 298.886 631.77 326.381 656.729 359.491 672.691 c 0
 392.603 688.653 418.854 689.604 418.087 674.814 c 0
 412.733 571.475 396.773 466.305 370.38 360.729 c 0
 343.986 255.152 307.288 149.681 260.68 45.6875 c 0
 252.637 27.7441 220.034 3.18945 187.906 -9.12207 c 0
 155.777 -21.4346 136.229 -16.8633 144.271 1.08008 c 0
 189.548 102.101 225.438 205.128 251.294 308.552 c 0
166.732 581.22 m 0
 163.081 579.111 156.704 572.557 151.021 563.333 c 0
 146.992 556.795 142.029 547.057 138.548 533.133 c 0
 134.47 516.817 104.483 491.89 71.6162 477.488 c 0
 38.748 463.088 15.3828 464.641 19.4619 480.956 c 0
 23.3867 496.654 29.6201 511.707 39.0332 526.983 c 0
 59.7598 560.62 95.9814 593.599 143.685 621.141 c 0
 176.174 639.898 206.483 651.769 229.896 659.395 c 0
 269.197 672.194 327.344 685.319 403.047 685.319 c 0
 424.988 685.319 422.662 667.658 397.854 645.896 c 0
 373.046 624.136 335.103 606.475 313.16 606.475 c 0
 260.189 606.475 215.957 598.93 187.035 589.51 c 0
 174.993 585.588 168.334 582.145 166.732 581.22 c 0
616.215 382.197 m 0
 627.025 388.438 634.764 395.226 641.786 402.641 c 0
 669.343 431.741 676.887 464.302 678.4 470.354 c 0
 686.791 503.915 684.12 528.663 673.296 547.412 c 0
 642.166 601.334 543.824 606.475 417.462 606.475 c 2
 313.16 606.475 l 2
 291.218 606.475 293.544 624.136 318.353 645.896 c 0
 343.161 667.658 381.104 685.319 403.046 685.319 c 2
 507.348 685.32 l 2
 626.351 685.319 752.475 682.241 791.062 615.404 c 0
 804.343 592.399 807.339 561.941 797.486 522.53 c 0
 792.011 500.627 779.259 462.336 736.774 417.471 c 0
 713.41 392.796 681.539 366.686 639.262 342.276 c 0
 617.965 329.98 596.339 319.548 575.641 311.07 c 0
 536.849 295.181 472.53 274.35 397.008 274.35 c 0
 375.066 274.35 377.393 292.012 402.201 313.772 c 0
 427.01 335.534 464.952 353.195 486.895 353.195 c 0
 496.3 353.195 549.3 353.447 597.998 373.395 c 0
 605.719 376.557 611.513 379.482 616.215 382.197 c 0
593.744 268.713 m 0
 617.813 227.021 639.09 176.935 662.472 136.435 c 0
 697.107 76.4414 724.21 62.8066 741.44 62.8066 c 0
 746.759 62.8066 755.732 63.0352 766.948 65.0361 c 0
 780.559 67.4648 791.168 71.4131 798.345 75.5557 c 0
 809.222 81.8359 819.179 91.9541 822.896 95.832 c 0
 843.423 117.249 881.177 137.761 907.169 141.617 c 0
 933.16 145.474 937.595 131.222 917.067 109.805 c 0
 892.744 84.4268 860.061 57.9609 821.392 35.6357 c 0
 804.458 25.8584 755.027 -1.47852 696.787 -11.8711 c 0
 680.709 -14.7402 665.741 -16.0391 651.554 -16.0381 c 0
 610.922 -16.0381 579.736 7.7666 544.706 68.4424 c 0
 520.636 110.135 499.36 160.221 475.979 200.722 c 0
 441.342 260.715 414.238 274.35 397.009 274.35 c 0
 375.066 274.35 377.393 292.011 402.201 313.772 c 0
 427.01 335.534 464.952 353.195 486.895 353.195 c 0
 527.526 353.195 558.713 329.391 593.744 268.713 c 0
EndSplineSet
Fore
568 308 m 1
 623 237 673 63 741 63 c 0
 790 63 809 81 823 96 c 0
 846 120 891 142 915 142 c 0
 925 142 930 139 930 132 c 0
 930 107 790 -16 652 -16 c 0
 564 -16 534 101 476 201 c 0
 441 261 414 274 397 274 c 0
 387 274 382 278 382 284 c 0
 382 306 448 353 487 353 c 0
 525 353 603 361 642 403 c 0
 670 433 683 475 683 507 c 0
 683 587 604 606 417 606 c 2
 413 606 l 1
 396 442 354 256 261 46 c 0
 248 18 187 -16 158 -16 c 0
 148 -16 142 -13 142 -6 c 0
 142 10 277 254 297 606 c 1
 244 604 189 594 167 581 c 0
 158 576 145 559 139 533 c 0
 133 509 70 468 34 468 c 0
 25 468 19 471 19 477 c 0
 19 485 29 510 39 527 c 0
 73 582 189 685 403 685 c 2
 513 685 l 2
 556 685 803 680 803 566 c 0
 803 457 697 358 568 308 c 1
EndSplineSet
EndChar
StartChar: S
Encoding: 83 83 20
Width: 665
Flags: HMW
Back
570.251 529.744 m 2
 575.032 548.871 573.316 568.631 565.062 582.929 c 0
 562.132 588.004 555.113 598.047 541.489 603.156 c 0
 506.665 616.217 468.629 622.674 430.39 622.674 c 0
 405.993 622.674 386.065 618.874 373.069 615.325 c 0
 359.583 611.642 352.407 607.903 350.9 607.034 c 0
 343.299 602.645 335.341 590.473 333.87 588.134 c 0
 329.023 580.425 324.406 570.413 321.515 558.848 c 0
 315.045 532.967 318.812 509.962 330.287 490.086 c 0
 350.59 454.92 394.978 429.836 441.863 412.846 c 0
 510.245 388.064 583.552 356.77 615.128 302.075 c 0
 629.884 276.518 635.438 245.687 625.905 207.554 c 0
 619.025 180.032 606.646 159.322 597.334 145.955 c 0
 573.739 112.083 536.345 78.7686 486.455 49.9648 c 0
 467.466 39.001 445.702 28.1436 420.486 18.2549 c 0
 380.863 2.71582 318.323 -16.0381 240.556 -16.0381 c 0
 184.955 -16.0381 106.108 -1.8252 47.4395 58.4199 c 0
 42.2637 63.7344 37.8506 69.5879 34.2139 75.8887 c 0
 25.54 90.9111 11.543 127.512 34.5811 176.251 c 0
 41.2383 190.334 47.9717 199.956 52.9424 206.287 c 0
 58.0977 212.854 74.8418 233.656 110.26 254.104 c 0
 148.775 276.342 175.103 279.345 188.469 279.345 c 0
 210.411 279.345 208.084 261.684 183.275 239.922 c 0
 158.467 218.161 120.524 200.5 98.582 200.5 c 0
 98.5811 200.5 111.529 201.611 133.308 214.185 c 1
 132.793 213.888 157.782 232.472 157.781 232.47 c 0
 155.655 229.763 152.93 224.936 150.486 219.766 c 0
 132.914 182.59 146.962 152.571 151.979 143.88 c 0
 154.974 138.692 158.604 133.888 162.796 129.583 c 0
 214.349 76.6455 281.687 62.8066 330.441 62.8066 c 0
 380.197 62.8066 422.686 72.7129 447.353 82.3867 c 0
 455.063 85.4111 460.121 87.9873 463.407 89.8848 c 0
 469.405 93.3477 478.566 100.134 488.373 114.213 c 0
 500.884 132.174 505.316 149.364 506.819 155.377 c 0
 514.427 185.808 510.249 211.762 497.362 234.083 c 0
 469.784 281.853 401.913 312.239 334.937 336.511 c 0
 284.843 354.665 236.064 381.315 212.521 422.094 c 0
 202.744 439.03 192.434 466.692 202.429 506.671 c 0
 206.284 522.091 212.669 537.138 222.311 552.474 c 0
 242.296 584.262 278.152 618.26 327.854 646.954 c 0
 363.438 667.498 397.511 680.478 427.012 688.534 c 0
 447.968 694.257 481.12 701.52 520.275 701.52 c 0
 567.37 701.52 610.244 693.809 648.736 679.372 c 0
 664.796 673.35 675.669 663.32 682.827 650.921 c 0
 693.602 632.258 695.916 608.238 689.337 581.921 c 2
 687.475 574.475 l 2
 683.396 558.159 653.409 533.231 620.542 518.83 c 0
 587.674 504.43 564.31 505.984 568.389 522.299 c 2
 570.251 529.744 l 2
EndSplineSet
Fore
198 475 m 0
 198 591 369 702 520 702 c 0
 567 702 610 694 649 679 c 0
 677 669 692 645 692 611 c 0
 692 600 691 588 687 574 c 0
 682 551 618 509 583 509 c 0
 574 509 568 512 568 519 c 0
 568 525 572 532 572 552 c 0
 572 576 563 595 541 603 c 0
 507 616 469 623 430 623 c 0
 349 623 330 595 322 559 c 0
 319 550 318 542 318 534 c 0
 318 464 401 427 442 413 c 0
 527 382 631 338 631 244 c 0
 631 113 443 -16 241 -16 c 0
 124 -16 52 44 34 76 c 0
 26 90 22 107 22 124 c 0
 22 217 133 279 188 279 c 0
 199 279 204 276 204 269 c 0
 204 259 187 237 148 216 c 1
 144 206 142 195 142 184 c 0
 142 164 148 144 163 130 c 0
 214 77 282 63 330 63 c 0
 390 63 441 77 463 90 c 0
 488 104 510 143 510 184 c 0
 510 201 507 218 497 234 c 0
 440 333 269 325 213 422 c 0
 202 440 198 458 198 475 c 0
EndSplineSet
EndChar
StartChar: T
Encoding: 84 84 21
Width: 609
Flags: HMW
Back
306.061 144.931 m 2
 412.754 571.702 l 2
 416.868 588.161 449.137 614.768 484.78 631.091 c 0
 520.424 647.414 546.012 647.304 541.897 630.844 c 2
 435.204 204.073 l 2
 417.986 135.204 392.795 66.3662 359.888 -1.30859 c 0
 350.859 -19.877 315.348 -46.21 280.622 -60.0869 c 0
 245.896 -73.9639 225.041 -70.1562 234.07 -51.5879 c 0
 265.204 12.4404 289.445 78.4717 306.061 144.931 c 2
837.71 635.193 m 0
 808.63 618.404 782.011 609.429 758.027 605.316 c 0
 742.802 602.705 728.396 601.383 691.081 601.382 c 2
 215.529 601.382 l 2
 205.334 601.382 191.565 599.542 184.372 596.711 c 0
 184.366 596.709 185.496 597.18 187.576 598.381 c 1
 187.471 598.32 191.257 600.739 191.253 600.735 c 0
 178.114 589.299 167.759 567.372 165.961 545.959 c 0
 164.692 530.849 134.561 504.318 98.7031 486.738 c 0
 62.8447 469.158 34.7725 467.153 36.041 482.263 c 0
 40.2432 532.316 76.9814 572.081 103.92 595.531 c 0
 118.45 608.18 138.904 623.586 164.495 638.361 c 0
 180.156 647.403 198.356 656.622 218.847 664.687 c 0
 262.683 681.938 295.313 685.371 317.053 685.371 c 2
 792.605 685.372 l 2
 815.336 685.372 829.659 685.62 840.78 687.526 c 0
 846.978 688.59 836.859 688.009 814.629 675.174 c 1
 816.373 676.181 651.281 542.858 791.418 659.195 c 0
 791.428 659.204 777.753 645.196 779.184 648.082 c 1
 783.298 664.541 815.565 691.147 851.209 707.471 c 0
 886.853 723.794 912.441 723.684 908.326 707.225 c 1
 895.862 682.078 896.07 678.666 873.056 659.561 c 0
 867.192 654.692 845.122 639.473 837.71 635.193 c 0
EndSplineSet
Fore
232 -60 m 0
 232 -47 273 13 306 145 c 2
 413 572 l 2
 415 580 424 591 437 601 c 1
 216 601 l 2
 200 601 190 597 186 596 c 1
 176 584 168 565 166 546 c 0
 164 517 81 472 49 472 c 0
 41 472 36 475 36 481 c 0
 36 567 192 685 317 685 c 2
 793 685 l 2
 800 685 807 685 813 686 c 1
 832 699 870 720 895 720 c 0
 905 720 910 715 908 707 c 1
 901 693 896 669 838 635 c 0
 788 606 753 601 691 601 c 2
 535 601 l 1
 435 204 l 2
 418 135 393 66 360 -1 c 0
 344 -34 274 -68 245 -68 c 0
 237 -68 232 -66 232 -60 c 0
EndSplineSet
EndChar
StartChar: U
Encoding: 85 85 22
Width: 685
Flags: HMW
Back
253.89 36.2012 m 0
 198.167 4.03027 142.101 -16.0381 96.6553 -16.0381 c 0
 39.207 -16.0381 16.0205 16.7891 7.42773 31.6729 c 0
 -8.72363 59.6484 -19.1973 108.658 -2.60449 175.029 c 0
 33.8398 320.807 169.893 545.852 140.225 597.24 c 0
 138.725 599.838 135.002 605.386 125.981 606.334 c 0
 125.456 606.389 126.307 606.475 123.19 606.475 c 0
 116.612 606.475 112.025 605.983 110.245 605.795 c 0
 99.335 604.638 86.8779 601.439 80.5352 597.777 c 0
 80.2051 597.587 79.7402 597.312 79.0801 596.885 c 0
 47.8682 576.701 13.5449 566.922 2.4668 575.056 c 0
 -8.61133 583.19 7.72852 606.173 38.9404 626.356 c 0
 46.1699 631.032 51.8418 634.438 57.4883 637.697 c 0
 81.3613 651.48 132.559 677.983 189.871 684.062 c 0
 199.702 685.105 208.675 685.32 213.077 685.32 c 0
 216.192 685.32 221.099 685.023 222.955 684.828 c 0
 241.518 682.879 252.106 675.424 257.99 665.232 c 0
 295.408 600.42 154.382 378.806 116.481 227.206 c 0
 108.186 194.021 102.231 139.437 125.193 99.665 c 0
 140.486 73.1758 163.316 62.8066 186.541 62.8066 c 0
 202.183 62.8066 215.246 67.1172 230.843 76.1221 c 0
 344.664 141.837 576.947 427.747 624.963 619.81 c 0
 629.042 636.124 659.027 661.053 691.896 675.453 c 0
 724.763 689.854 748.128 688.301 744.049 671.986 c 0
 700.954 499.605 474.831 163.762 253.89 36.2012 c 0
599.216 214.845 m 0
 587.988 169.935 581.592 125.03 580.171 81.002 c 0
 580.004 75.8389 581.185 71.1113 583.404 67.2656 c 0
 587.229 60.6416 594.818 56.5225 600.562 56.2852 c 0
 603.258 56.1738 596.231 56.7988 580.084 48.6523 c 1
 621.022 69.3076 l 2
 654.129 86.0107 681.762 88.2471 682.702 74.2988 c 0
 683.644 60.3506 657.538 35.4736 624.432 18.7705 c 2
 583.492 -1.88477 l 2
 553.591 -16.9707 527.259 -23.3105 507.587 -22.498 c 0
 494.688 -21.9648 475.563 -17.917 465.639 -0.726562 c 0
 461.893 5.76172 459.888 13.5439 460.184 22.6943 c 0
 461.662 68.5078 468.312 115.398 480.13 162.669 c 0
 518.536 316.292 567.169 469.814 625.743 622.253 c 0
 632.435 639.666 664.19 664.391 696.627 677.442 c 0
 729.064 690.494 749.96 686.955 743.269 669.542 c 0
 685.392 518.918 637.256 367.002 599.216 214.845 c 0
EndSplineSet
Fore
264 636 m 0
 264 533 109 298 109 169 c 0
 109 103 142 63 187 63 c 0
 202 63 215 67 231 76 c 0
 326 131 503 339 587 518 c 2
 626 622 l 2
 635 647 694 685 729 685 c 0
 739 685 745 682 745 675 c 0
 745 666 725 612 707 572 c 0
 656 427 581 186 581 88 c 0
 581 71 583 61 597 57 c 1
 621 69 l 2
 640 79 656 83 668 83 c 0
 675 83 683 81 683 74 c 0
 683 59 657 35 624 19 c 2
 583 -2 l 2
 555 -16 530 -23 511 -23 c 0
 478 -23 460 -4 460 21 c 0
 460 93 483 180 506 262 c 1
 330 51 179 -16 97 -16 c 0
 26 -16 -11 35 -11 111 c 0
 -11 244 144 487 144 578 c 0
 144 594 139 606 123 606 c 0
 70 606 58 572 15 572 c 0
 5 572 -1 576 -1 583 c 0
 -1 613 120 685 213 685 c 0
 250 685 264 667 264 636 c 0
EndSplineSet
EndChar
StartChar: V
Encoding: 86 86 23
Width: 699
Flags: HMW
Back
169.35 524.305 m 0
 133.676 586.098 87.959 607.481 44.2207 607.481 c 0
 22.3828 607.481 24.2686 624.914 48.4307 646.395 c 0
 72.5928 667.875 109.926 685.308 131.764 685.308 c 0
 183.616 685.308 241.388 666.801 285.08 591.121 c 0
 367.125 449.006 356.079 177.02 346.67 63.7275 c 1
 305.52 32.3516 272.3 9.875 255.507 0 c 1
 224.405 -40.501 l 1
 223.666 -39.3135 223.655 -38.2158 224.464 -37.4072 c 1
 222.031 -39.8398 275.796 339.924 169.35 524.305 c 0
670.559 463.015 m 0
 671.873 466.626 672.864 469.562 673.48 472.44 c 0
 674.884 478.985 670.906 530.042 616.605 549.807 c 0
 605.002 554.029 591.938 556.341 577.757 556.341 c 0
 564.294 556.341 562.537 585.237 573.835 620.842 c 0
 585.133 656.446 605.229 685.342 618.692 685.342 c 0
 634.872 685.342 649.785 682.721 663.205 677.836 c 0
 759.857 642.658 736.787 532.998 728.681 495.054 c 0
 725.327 479.359 719.632 462.808 713.958 447.219 c 0
 709.503 434.979 704.669 423.125 699.617 411.779 c 0
 584.698 153.665 245.446 -60.3047 242.195 -62.2168 c 0
 226.229 -71.6055 219.235 -51.3525 226.583 -17.0088 c 0
 233.932 17.335 252.853 52.8291 268.818 62.2178 c 0
 368.86 121.049 607.021 319.459 666.526 453.113 c 0
 668.225 456.927 669.531 460.193 670.559 463.015 c 0
EndSplineSet
Fore
132 685 m 0
 307 685 353 460 353 219 c 0
 353 182 352 148 350 118 c 1
 464 204 620 349 667 453 c 0
 671 464 674 471 674 476 c 0
 674 494 656 556 578 556 c 0
 570 556 566 565 566 577 c 0
 566 614 595 685 619 685 c 0
 666 685 737 661 737 562 c 0
 737 511 719 455 700 412 c 0
 587 159 246 -65 235 -65 c 0
 227 -65 224 -55 224 -41 c 2
 224 -37 l 1
 223 -39 236 54 236 171 c 0
 236 360 198 607 44 607 c 0
 34 607 29 611 29 618 c 0
 29 641 96 685 132 685 c 0
EndSplineSet
EndChar
StartChar: W
Encoding: 87 87 24
Width: 1110
Flags: HMW
Back
154.228 536.256 m 0
 123.375 589.696 82.2451 607.481 44.2207 607.481 c 0
 22.3828 607.481 24.2686 624.914 48.4307 646.395 c 0
 72.5928 667.875 109.926 685.309 131.764 685.309 c 0
 177.902 685.309 231.223 670.165 269.957 603.072 c 0
 330.885 497.537 329.164 306.727 317.621 170.144 c 1
 368.159 230.861 415.803 293.096 460.315 356.453 c 0
 514.965 434.238 564.732 513.479 609.393 593.432 c 1
 600.712 613.803 l 2
 595.623 625.54 617.601 649.666 649.77 667.656 c 0
 681.938 685.646 712.175 690.723 717.263 678.986 c 0
 762.877 573.771 798.823 463.116 824.772 348.007 c 0
 843.862 263.326 857.5 176.42 865.626 87.7061 c 1
 829.007 45.4248 798.881 13.8418 784.579 0 c 1
 752.903 -41.249 l 1
 746.359 70.6865 731.102 180.005 707.245 285.833 c 0
 688.097 370.773 663.451 453.28 633.444 532.935 c 1
 582.215 440.459 526.019 350.854 465.271 264.389 c 0
 386.496 152.266 300.297 45.7344 207.412 -54.748 c 0
 190.012 -73.5723 177.896 -64.3213 180.368 -34.1006 c 0
 181.062 -25.6064 182.837 -16.3555 185.414 -7.02637 c 0
 199.381 87.6064 238.777 389.804 154.228 536.256 c 0
1080.21 454.266 m 0
 1082.79 461.343 1084.57 467.207 1085.88 472.441 c 0
 1087.7 479.734 1087.01 486.637 1086.76 489.938 c 0
 1085.08 512.605 1072.85 541.301 1043.38 552.027 c 0
 1035.73 554.812 1027.08 556.341 1017.47 556.341 c 0
 1004.01 556.341 1002.25 585.236 1013.55 620.841 c 0
 1024.85 656.445 1044.95 685.342 1058.41 685.341 c 0
 1069.97 685.341 1080.5 683.507 1089.98 680.057 c 0
 1122.65 668.167 1146.17 635.657 1150.1 582.714 c 0
 1151.81 559.604 1149.96 530.568 1141.08 495.052 c 0
 1136.31 475.987 1130.31 456.876 1123.61 438.47 c 0
 1038.34 204.191 788.225 -47.0137 777.873 -57.0322 c 0
 760.692 -73.6621 749.752 -61.6084 753.454 -30.127 c 0
 757.155 1.35449 774.104 40.4023 791.285 57.0322 c 0
 866.979 130.296 1036.17 333.262 1080.21 454.266 c 0
EndSplineSet
Fore
29 618 m 0
 29 641 96 685 132 685 c 0
 284 685 324 509 324 316 c 0
 324 268 322 218 318 170 c 1
 426 300 526 444 609 593 c 1
 601 614 l 1
 600 615 600 616 600 618 c 0
 600 641 667 685 703 685 c 0
 710 685 715 683 717 679 c 0
 789 514 839 330 861 131 c 1
 973 258 1087 428 1087 487 c 0
 1087 508 1073 556 1017 556 c 0
 1009 556 1006 565 1006 577 c 0
 1006 614 1035 685 1058 685 c 0
 1110 685 1150 647 1150 568 c 0
 1150 326 803 -33 778 -57 c 0
 773 -62 768 -64 765 -64 c 0
 757 -64 754 -55 753 -41 c 0
 739 190 690 384 633 533 c 1
 514 317 370 121 207 -55 c 0
 201 -62 196 -65 192 -65 c 0
 184 -65 181 -54 181 -39 c 0
 181 -26 207 99 207 258 c 0
 207 553 109 607 44 607 c 0
 34 607 29 611 29 618 c 0
EndSplineSet
EndChar
StartChar: X
Encoding: 88 88 25
Width: 782
Flags: HMW
Back
676.91 29.8721 m 0
 663.565 22.168 637.208 8.29004 603.42 3.06445 c 0
 590.907 1.12988 578.979 0.161133 547.284 0.161133 c 0
 505.575 0.161133 485.513 21.1172 474.019 41.0264 c 0
 459.59 66.0176 453.7 98.7188 450.506 130.245 c 2
 413.641 494.037 l 2
 410.566 524.366 404.636 555.018 392.255 576.463 c 0
 379.958 597.763 362.79 606.475 346.869 606.475 c 0
 327.889 606.475 316.076 606.337 307.091 604.947 c 0
 302.245 604.197 312.046 605.221 330.176 615.688 c 1
 330.171 615.685 361.363 645.521 358.835 635.405 c 0
 354.756 619.091 324.771 594.162 291.902 579.762 c 0
 259.035 565.36 235.67 566.914 239.748 583.229 c 0
 248.86 619.678 290.754 646.154 307.129 655.608 c 0
 320.475 663.313 346.832 677.19 380.619 682.416 c 0
 393.132 684.352 405.06 685.32 436.755 685.32 c 0
 478.463 685.32 498.526 664.364 510.021 644.454 c 0
 524.449 619.463 530.339 586.763 533.534 555.236 c 2
 570.399 191.444 l 2
 573.473 161.114 579.403 130.463 591.784 109.019 c 0
 604.081 87.7178 621.25 79.0068 637.17 79.0068 c 0
 656.15 79.0068 667.964 79.1445 676.948 80.5342 c 0
 681.995 81.3145 674.363 81.6289 653.863 69.793 c 1
 653.869 69.7959 622.676 39.9609 625.205 50.0762 c 0
 629.283 66.3906 659.269 91.3193 692.137 105.72 c 0
 725.005 120.121 748.37 118.567 744.291 102.253 c 0
 735.179 65.8037 693.286 39.3271 676.91 29.8721 c 0
62.6152 27.6025 m 0
 55.0596 40.6895 52.6621 57.2334 57.5361 76.7295 c 0
 62.918 98.2549 85.6338 124.397 115.136 149.886 c 0
 176.57 202.964 284.123 266.168 350.507 304.495 c 0
 418.852 343.953 490.606 383.788 554.896 420.906 c 0
 655.323 478.888 708.332 513.588 735.379 536.956 c 0
 747.846 547.728 751.016 553.318 751.83 556.575 c 0
 754.776 568.361 753.365 580.719 748.072 589.886 c 0
 740.388 603.196 727.919 606.475 721.287 606.475 c 0
 699.346 606.475 701.672 624.137 726.48 645.897 c 0
 751.289 667.659 789.232 685.32 811.174 685.319 c 0
 819.551 685.319 850.509 684.429 865.838 657.878 c 0
 873.394 644.791 875.79 628.248 870.916 608.752 c 0
 865.534 587.227 842.818 561.084 813.316 535.596 c 0
 751.881 482.517 644.327 419.312 577.943 380.985 c 0
 509.599 341.526 437.845 301.692 373.555 264.574 c 0
 272.33 206.133 219.284 171.171 193.073 148.524 c 0
 180.606 137.754 177.437 132.164 176.623 128.906 c 0
 173.676 117.12 175.088 104.762 180.381 95.5947 c 0
 188.064 82.2842 200.533 79.0068 207.164 79.0068 c 0
 229.106 79.0068 226.779 61.3447 201.972 39.584 c 0
 177.163 17.8223 139.22 0.161133 117.277 0.161133 c 0
 108.901 0.161133 77.9434 1.05176 62.6152 27.6025 c 0
EndSplineSet
Fore
117 0 m 0
 80 0 55 23 55 57 c 0
 55 107 106 161 351 304 c 2
 428 349 l 1
 414 494 l 2
 404 586 374 606 347 606 c 2
 336 606 l 1
 306 582 271 570 254 570 c 0
 245 570 239 573 239 580 c 0
 239 610 304 670 381 682 c 0
 393 684 405 685 437 685 c 0
 514 685 528 611 534 555 c 2
 548 417 l 1
 753 534 753 551 753 569 c 0
 753 592 737 606 721 606 c 0
 711 606 706 610 706 616 c 0
 706 638 772 685 811 685 c 0
 849 685 873 663 873 628 c 0
 873 579 823 523 578 381 c 2
 553 367 l 1
 570 191 l 2
 580 99 610 79 637 79 c 2
 648 79 l 1
 678 103 713 116 730 116 c 0
 739 116 745 112 745 106 c 0
 745 75 681 15 603 3 c 0
 591 1 579 0 547 0 c 0
 470 0 456 75 451 130 c 2
 433 299 l 1
 374 265 l 2
 182 154 175 135 175 120 c 0
 175 84 199 79 207 79 c 0
 217 79 222 75 222 69 c 0
 222 47 157 0 117 0 c 0
EndSplineSet
EndChar
StartChar: Y
Encoding: 89 89 26
Width: 728
Flags: HMW
Back
356.147 -8.79102 m 1
 360.214 79.3945 367.94 360.448 279.513 513.617 c 0
 241.895 578.776 195.43 604.614 149.268 607.253 c 1
 130.096 591.96 103.937 578.632 83.1875 574.48 c 0
 55.9307 569.027 48.2783 581.463 66.1045 602.24 c 0
 68.167 604.645 75.0732 612.024 77.5908 614.496 c 0
 93.2246 629.845 91.5322 627.003 130.529 654.144 c 0
 172.627 678.449 207.254 685.309 228.775 685.309 c 0
 285.662 685.308 347.168 663.704 395.242 580.434 c 0
 471.989 447.497 478.76 214.589 476.074 93.5693 c 1
 435.429 54.5225 394.376 19.8887 356.147 -8.79102 c 1
160.338 -33.377 m 0
 174.309 -38.4619 189.927 -41.1992 206.652 -41.1992 c 0
 284.145 -41.1992 614.147 214.188 700.006 450.081 c 0
 704.433 462.241 708.061 474 710.997 485.746 c 0
 712.466 491.621 712.139 495.713 711.43 501.727 c 0
 708.626 525.514 692.165 554.567 657.21 567.289 c 0
 646.254 571.277 633.911 573.465 620.472 573.465 c 0
 607.018 573.465 603.671 598.553 613.001 629.465 c 0
 622.332 660.376 640.824 685.464 654.278 685.464 c 0
 670.015 685.464 684.507 682.918 697.565 678.165 c 0
 731.763 665.719 763.576 633.865 769.987 579.469 c 0
 772.478 558.336 771.468 531.258 763.402 498.994 c 0
 757.958 477.22 751.212 455.476 743.488 434.256 c 0
 623.316 104.091 254.617 -153.198 172.846 -153.198 c 0
 153.813 -153.198 136.062 -150.104 119.982 -144.253 c 0
 80.459 -129.868 46.5068 -97.0947 35.8779 -42.0518 c 0
 31.9365 -21.6387 41.6348 13.7676 57.5264 36.9805 c 0
 73.418 60.1934 89.5146 62.4658 93.457 42.0527 c 0
 98.6719 15.0459 118.296 -18.0752 160.338 -33.377 c 0
EndSplineSet
Fore
36 -30 m 0
 36 12 64 56 82 56 c 0
 87 56 92 51 93 42 c 0
 101 2 139 -41 207 -41 c 0
 234 -41 291 -10 358 40 c 1
 358 89 l 2
 358 406 281 600 149 607 c 1
 121 584 87 573 72 573 c 0
 62 573 56 577 56 583 c 0
 56 607 152 685 229 685 c 0
 416 685 477 430 477 141 c 1
 674 329 712 474 712 495 c 0
 712 523 687 573 620 573 c 0
 611 573 608 582 608 595 c 0
 608 627 632 685 654 685 c 0
 722 685 771 638 771 558 c 0
 771 540 769 520 763 499 c 0
 673 138 259 -153 173 -153 c 0
 94 -153 36 -95 36 -30 c 0
EndSplineSet
EndChar
StartChar: Z
Encoding: 90 90 27
Width: 787
Flags: HMW
Back
642.781 584.73 m 0
 555.674 584.73 475.293 601.382 394.887 601.382 c 0
 372.913 601.382 351.037 596.92 341.414 592.422 c 0
 341.412 592.421 342.824 593.186 342.806 593.175 c 0
 342.797 593.169 345.62 594.915 346.148 595.368 c 1
 345.28 594.624 330.682 581.307 324.214 555.438 c 0
 320.1 538.978 287.832 512.371 252.188 496.048 c 0
 216.545 479.725 190.956 479.835 195.071 496.294 c 0
 201.781 523.137 218.909 555.959 260.569 591.679 c 0
 274.922 603.985 294.794 618.761 319.725 633.154 c 0
 329.773 638.956 340.05 644.466 353.327 650.671 c 0
 383.399 664.728 435.728 685.372 496.411 685.372 c 0
 583.519 685.371 663.898 668.721 744.305 668.721 c 0
 750.297 668.721 759.842 669.653 764.62 671.422 c 0
 764.633 671.427 761.795 670.146 761.854 670.175 c 0
 797.728 688.022 826.336 690.502 825.709 675.71 c 0
 825.083 660.917 795.459 634.427 759.584 616.579 c 0
 748.735 611.182 737.264 606.003 723.529 600.92 c 0
 687.159 587.459 661.003 584.73 642.781 584.73 c 0
450.487 367.566 m 0
 539.762 449.681 625.182 537.283 705.691 629.574 c 0
 724.789 651.468 764.941 675.419 795.317 683.038 c 0
 825.692 690.657 834.845 679.072 815.746 657.179 c 0
 731.097 560.141 640.341 466.919 543.717 378.046 c 0
 415.455 260.071 281.979 146.881 143.7 38.9619 c 0
 114.081 15.8457 73.6064 -1.50781 53.3555 0.227539 c 0
 33.1045 1.96191 40.708 22.1309 70.3271 45.2471 c 0
 200.717 147.008 327.65 254.582 450.487 367.566 c 0
629.853 38.5596 m 0
 595.407 18.6719 563.509 6.99707 535.92 2.38379 c 0
 527.266 0.936523 519.066 0.109375 509.664 0.109375 c 0
 385.143 0.109375 268.778 16.7607 151.096 16.7607 c 0
 123.7 16.7607 99.0244 11.1758 83.3867 5.74805 c 0
 49.9609 -5.85449 33.417 1.01758 46.459 21.0859 c 0
 59.502 41.1543 97.2148 66.8584 130.641 78.4609 c 0
 144.227 83.1758 195.599 100.75 252.62 100.75 c 0
 377.142 100.751 493.506 84.0986 611.188 84.0986 c 0
 615.241 84.0986 618.177 84.5127 619.3 84.7012 c 0
 622.7 85.2695 616.407 84.1025 606.771 78.5391 c 1
 606.785 78.5479 597.983 72.4971 599.523 73.8447 c 0
 608.244 81.4766 634.238 112.662 645.928 159.422 c 0
 650.043 175.881 682.311 202.487 717.954 218.811 c 0
 753.598 235.134 779.187 235.023 775.071 218.564 c 0
 755.928 141.989 704.1 94.1377 687.455 79.5713 c 0
 672.88 66.8164 653.489 52.2061 629.853 38.5596 c 0
568.619 333.744 m 0
 568.617 333.747 569.707 332.929 567.845 333.692 c 0
 553.615 339.525 509.844 339.806 467.522 339.806 c 2
 315.187 339.806 l 2
 294.971 339.806 291.815 354.59 308.143 372.806 c 0
 324.471 391.021 354.128 405.806 374.344 405.806 c 2
 526.68 405.806 l 2
 604.034 405.806 629.659 403.466 647.099 396.317 c 0
 655.421 392.906 658.441 389.056 659.937 386.467 c 0
 662.45 382.112 662.512 377.445 661.341 372.763 c 0
 657.405 357.021 633.365 336.806 607.679 327.638 c 0
 581.993 318.471 564.341 323.806 568.275 339.547 c 0
 568.277 339.554 568.619 333.743 568.619 333.744 c 0
EndSplineSet
Fore
662 379 m 0
 662 355 617 323 585 323 c 0
 575 323 569 327 568 334 c 1
 557 338 532 339 502 340 c 1
 423 267 329 187 220 99 c 1
 231 100 242 101 253 101 c 0
 376 101 492 84 609 84 c 1
 621 98 637 125 646 159 c 0
 652 183 722 231 761 231 c 0
 770 231 776 228 776 222 c 0
 776 158 645 0 510 0 c 0
 385 0 269 17 151 17 c 0
 99 17 77 0 56 0 c 0
 44 0 42 6 42 9 c 0
 42 26 75 49 77 51 c 0
 214 158 327 254 420 340 c 1
 315 340 l 2
 304 340 298 345 298 352 c 0
 298 374 344 406 374 406 c 2
 491 406 l 1
 563 474 620 535 667 586 c 1
 659 585 651 585 643 585 c 0
 556 585 475 601 395 601 c 0
 375 601 355 598 345 594 c 1
 318 565 341 537 252 496 c 0
 234 488 219 484 209 484 c 0
 200 484 195 487 195 493 c 0
 195 496 l 0
 219 590 371 685 496 685 c 0
 584 685 664 669 744 669 c 0
 772 669 784 685 811 685 c 0
 818 685 826 684 826 676 c 0
 826 671 823 664 811 652 c 0
 756 589 679 506 573 405 c 1
 631 404 662 398 662 379 c 0
EndSplineSet
EndChar
